<?xml version="1.0" standalone="no"?>
<!DOCTYPE svg PUBLIC "-//W3C//DTD SVG 1.1//EN" "http://www.w3.org/Graphics/SVG/1.1/DTD/svg11.dtd">
<svg width="758mm" height="758mm" viewBox="-4 -754 758 758" xmlns="http://www.w3.org/2000/svg" version="1.1">
<title>OpenSCAD Model</title>
<path d="
M 1.40202,-746.93 L 2.83922,-748.175 L 3.375,-750 L 2.83922,-751.825 L 1.40202,-753.07 L -0.480301,-753.341
 L -2.21014,-752.551 L -3.23828,-750.951 L -3.23828,-749.049 L -2.21014,-747.449 L -0.480301,-746.659 z
M 676.402,-746.93 L 677.839,-748.175 L 678.375,-750 L 677.839,-751.825 L 676.402,-753.07 L 674.52,-753.341
 L 672.79,-752.551 L 671.762,-750.951 L 671.762,-749.049 L 672.79,-747.449 L 674.52,-746.659 z
M 151.402,-746.93 L 152.839,-748.175 L 153.375,-750 L 152.839,-751.825 L 151.402,-753.07 L 149.52,-753.341
 L 147.79,-752.551 L 146.762,-750.951 L 146.762,-749.049 L 147.79,-747.449 L 149.52,-746.659 z
M 601.402,-746.93 L 602.839,-748.175 L 603.375,-750 L 602.839,-751.825 L 601.402,-753.07 L 599.52,-753.341
 L 597.79,-752.551 L 596.762,-750.951 L 596.762,-749.049 L 597.79,-747.449 L 599.52,-746.659 z
M 226.402,-746.93 L 227.839,-748.175 L 228.375,-750 L 227.839,-751.825 L 226.402,-753.07 L 224.52,-753.341
 L 222.79,-752.551 L 221.762,-750.951 L 221.762,-749.049 L 222.79,-747.449 L 224.52,-746.659 z
M 76.402,-746.93 L 77.8392,-748.175 L 78.375,-750 L 77.8392,-751.825 L 76.402,-753.07 L 74.5197,-753.341
 L 72.7898,-752.551 L 71.7617,-750.951 L 71.7617,-749.049 L 72.7898,-747.449 L 74.5197,-746.659 z
M 751.402,-746.93 L 752.839,-748.175 L 753.375,-750 L 752.839,-751.825 L 751.402,-753.07 L 749.52,-753.341
 L 747.79,-752.551 L 746.762,-750.951 L 746.762,-749.049 L 747.79,-747.449 L 749.52,-746.659 z
M 526.402,-746.93 L 527.839,-748.175 L 528.375,-750 L 527.839,-751.825 L 526.402,-753.07 L 524.52,-753.341
 L 522.79,-752.551 L 521.762,-750.951 L 521.762,-749.049 L 522.79,-747.449 L 524.52,-746.659 z
M 301.402,-746.93 L 302.839,-748.175 L 303.375,-750 L 302.839,-751.825 L 301.402,-753.07 L 299.52,-753.341
 L 297.79,-752.551 L 296.762,-750.951 L 296.762,-749.049 L 297.79,-747.449 L 299.52,-746.659 z
M 451.402,-746.93 L 452.839,-748.175 L 453.375,-750 L 452.839,-751.825 L 451.402,-753.07 L 449.52,-753.341
 L 447.79,-752.551 L 446.762,-750.951 L 446.762,-749.049 L 447.79,-747.449 L 449.52,-746.659 z
M 376.402,-746.93 L 377.839,-748.175 L 378.375,-750 L 377.839,-751.825 L 376.402,-753.07 L 374.52,-753.341
 L 372.79,-752.551 L 371.762,-750.951 L 371.762,-749.049 L 372.79,-747.449 L 374.52,-746.659 z
M 526.402,-671.93 L 527.839,-673.175 L 528.375,-675 L 527.839,-676.825 L 526.402,-678.07 L 524.52,-678.341
 L 522.79,-677.551 L 521.762,-675.951 L 521.762,-674.049 L 522.79,-672.449 L 524.52,-671.659 z
M 301.402,-671.93 L 302.839,-673.175 L 303.375,-675 L 302.839,-676.825 L 301.402,-678.07 L 299.52,-678.341
 L 297.79,-677.551 L 296.762,-675.951 L 296.762,-674.049 L 297.79,-672.449 L 299.52,-671.659 z
M 451.402,-671.93 L 452.839,-673.175 L 453.375,-675 L 452.839,-676.825 L 451.402,-678.07 L 449.52,-678.341
 L 447.79,-677.551 L 446.762,-675.951 L 446.762,-674.049 L 447.79,-672.449 L 449.52,-671.659 z
M 226.402,-671.93 L 227.839,-673.175 L 228.375,-675 L 227.839,-676.825 L 226.402,-678.07 L 224.52,-678.341
 L 222.79,-677.551 L 221.762,-675.951 L 221.762,-674.049 L 222.79,-672.449 L 224.52,-671.659 z
M 601.402,-671.93 L 602.839,-673.175 L 603.375,-675 L 602.839,-676.825 L 601.402,-678.07 L 599.52,-678.341
 L 597.79,-677.551 L 596.762,-675.951 L 596.762,-674.049 L 597.79,-672.449 L 599.52,-671.659 z
M 151.402,-671.93 L 152.839,-673.175 L 153.375,-675 L 152.839,-676.825 L 151.402,-678.07 L 149.52,-678.341
 L 147.79,-677.551 L 146.762,-675.951 L 146.762,-674.049 L 147.79,-672.449 L 149.52,-671.659 z
M 376.402,-671.93 L 377.839,-673.175 L 378.375,-675 L 377.839,-676.825 L 376.402,-678.07 L 374.52,-678.341
 L 372.79,-677.551 L 371.762,-675.951 L 371.762,-674.049 L 372.79,-672.449 L 374.52,-671.659 z
M 1.40202,-671.93 L 2.83922,-673.175 L 3.375,-675 L 2.83922,-676.825 L 1.40202,-678.07 L -0.480301,-678.341
 L -2.21014,-677.551 L -3.23828,-675.951 L -3.23828,-674.049 L -2.21014,-672.449 L -0.480301,-671.659 z
M 676.402,-671.93 L 677.839,-673.175 L 678.375,-675 L 677.839,-676.825 L 676.402,-678.07 L 674.52,-678.341
 L 672.79,-677.551 L 671.762,-675.951 L 671.762,-674.049 L 672.79,-672.449 L 674.52,-671.659 z
M 751.402,-671.93 L 752.839,-673.175 L 753.375,-675 L 752.839,-676.825 L 751.402,-678.07 L 749.52,-678.341
 L 747.79,-677.551 L 746.762,-675.951 L 746.762,-674.049 L 747.79,-672.449 L 749.52,-671.659 z
M 76.402,-671.93 L 77.8392,-673.175 L 78.375,-675 L 77.8392,-676.825 L 76.402,-678.07 L 74.5197,-678.341
 L 72.7898,-677.551 L 71.7617,-675.951 L 71.7617,-674.049 L 72.7898,-672.449 L 74.5197,-671.659 z
M 676.402,-596.93 L 677.839,-598.175 L 678.375,-600 L 677.839,-601.825 L 676.402,-603.07 L 674.52,-603.341
 L 672.79,-602.551 L 671.762,-600.951 L 671.762,-599.049 L 672.79,-597.449 L 674.52,-596.659 z
M 526.402,-596.93 L 527.839,-598.175 L 528.375,-600 L 527.839,-601.825 L 526.402,-603.07 L 524.52,-603.341
 L 522.79,-602.551 L 521.762,-600.951 L 521.762,-599.049 L 522.79,-597.449 L 524.52,-596.659 z
M 751.402,-596.93 L 752.839,-598.175 L 753.375,-600 L 752.839,-601.825 L 751.402,-603.07 L 749.52,-603.341
 L 747.79,-602.551 L 746.762,-600.951 L 746.762,-599.049 L 747.79,-597.449 L 749.52,-596.659 z
M 226.402,-596.93 L 227.839,-598.175 L 228.375,-600 L 227.839,-601.825 L 226.402,-603.07 L 224.52,-603.341
 L 222.79,-602.551 L 221.762,-600.951 L 221.762,-599.049 L 222.79,-597.449 L 224.52,-596.659 z
M 76.402,-596.93 L 77.8392,-598.175 L 78.375,-600 L 77.8392,-601.825 L 76.402,-603.07 L 74.5197,-603.341
 L 72.7898,-602.551 L 71.7617,-600.951 L 71.7617,-599.049 L 72.7898,-597.449 L 74.5197,-596.659 z
M 301.402,-596.93 L 302.839,-598.175 L 303.375,-600 L 302.839,-601.825 L 301.402,-603.07 L 299.52,-603.341
 L 297.79,-602.551 L 296.762,-600.951 L 296.762,-599.049 L 297.79,-597.449 L 299.52,-596.659 z
M 601.402,-596.93 L 602.839,-598.175 L 603.375,-600 L 602.839,-601.825 L 601.402,-603.07 L 599.52,-603.341
 L 597.79,-602.551 L 596.762,-600.951 L 596.762,-599.049 L 597.79,-597.449 L 599.52,-596.659 z
M 451.402,-596.93 L 452.839,-598.175 L 453.375,-600 L 452.839,-601.825 L 451.402,-603.07 L 449.52,-603.341
 L 447.79,-602.551 L 446.762,-600.951 L 446.762,-599.049 L 447.79,-597.449 L 449.52,-596.659 z
M 1.40202,-596.93 L 2.83922,-598.175 L 3.375,-600 L 2.83922,-601.825 L 1.40202,-603.07 L -0.480301,-603.341
 L -2.21014,-602.551 L -3.23828,-600.951 L -3.23828,-599.049 L -2.21014,-597.449 L -0.480301,-596.659 z
M 151.402,-596.93 L 152.839,-598.175 L 153.375,-600 L 152.839,-601.825 L 151.402,-603.07 L 149.52,-603.341
 L 147.79,-602.551 L 146.762,-600.951 L 146.762,-599.049 L 147.79,-597.449 L 149.52,-596.659 z
M 376.402,-596.93 L 377.839,-598.175 L 378.375,-600 L 377.839,-601.825 L 376.402,-603.07 L 374.52,-603.341
 L 372.79,-602.551 L 371.762,-600.951 L 371.762,-599.049 L 372.79,-597.449 L 374.52,-596.659 z
M 301.402,-521.93 L 302.839,-523.175 L 303.375,-525 L 302.839,-526.825 L 301.402,-528.07 L 299.52,-528.341
 L 297.79,-527.551 L 296.762,-525.951 L 296.762,-524.049 L 297.79,-522.449 L 299.52,-521.659 z
M 451.402,-521.93 L 452.839,-523.175 L 453.375,-525 L 452.839,-526.825 L 451.402,-528.07 L 449.52,-528.341
 L 447.79,-527.551 L 446.762,-525.951 L 446.762,-524.049 L 447.79,-522.449 L 449.52,-521.659 z
M 751.402,-521.93 L 752.839,-523.175 L 753.375,-525 L 752.839,-526.825 L 751.402,-528.07 L 749.52,-528.341
 L 747.79,-527.551 L 746.762,-525.951 L 746.762,-524.049 L 747.79,-522.449 L 749.52,-521.659 z
M 1.40202,-521.93 L 2.83922,-523.175 L 3.375,-525 L 2.83922,-526.825 L 1.40202,-528.07 L -0.480301,-528.341
 L -2.21014,-527.551 L -3.23828,-525.951 L -3.23828,-524.049 L -2.21014,-522.449 L -0.480301,-521.659 z
M 376.402,-521.93 L 377.839,-523.175 L 378.375,-525 L 377.839,-526.825 L 376.402,-528.07 L 374.52,-528.341
 L 372.79,-527.551 L 371.762,-525.951 L 371.762,-524.049 L 372.79,-522.449 L 374.52,-521.659 z
M 676.402,-521.93 L 677.839,-523.175 L 678.375,-525 L 677.839,-526.825 L 676.402,-528.07 L 674.52,-528.341
 L 672.79,-527.551 L 671.762,-525.951 L 671.762,-524.049 L 672.79,-522.449 L 674.52,-521.659 z
M 526.402,-521.93 L 527.839,-523.175 L 528.375,-525 L 527.839,-526.825 L 526.402,-528.07 L 524.52,-528.341
 L 522.79,-527.551 L 521.762,-525.951 L 521.762,-524.049 L 522.79,-522.449 L 524.52,-521.659 z
M 151.402,-521.93 L 152.839,-523.175 L 153.375,-525 L 152.839,-526.825 L 151.402,-528.07 L 149.52,-528.341
 L 147.79,-527.551 L 146.762,-525.951 L 146.762,-524.049 L 147.79,-522.449 L 149.52,-521.659 z
M 226.402,-521.93 L 227.839,-523.175 L 228.375,-525 L 227.839,-526.825 L 226.402,-528.07 L 224.52,-528.341
 L 222.79,-527.551 L 221.762,-525.951 L 221.762,-524.049 L 222.79,-522.449 L 224.52,-521.659 z
M 76.402,-521.93 L 77.8392,-523.175 L 78.375,-525 L 77.8392,-526.825 L 76.402,-528.07 L 74.5197,-528.341
 L 72.7898,-527.551 L 71.7617,-525.951 L 71.7617,-524.049 L 72.7898,-522.449 L 74.5197,-521.659 z
M 601.402,-521.93 L 602.839,-523.175 L 603.375,-525 L 602.839,-526.825 L 601.402,-528.07 L 599.52,-528.341
 L 597.79,-527.551 L 596.762,-525.951 L 596.762,-524.049 L 597.79,-522.449 L 599.52,-521.659 z
M 301.402,-446.93 L 302.839,-448.175 L 303.375,-450 L 302.839,-451.825 L 301.402,-453.07 L 299.52,-453.341
 L 297.79,-452.551 L 296.762,-450.951 L 296.762,-449.049 L 297.79,-447.449 L 299.52,-446.659 z
M 151.402,-446.93 L 152.839,-448.175 L 153.375,-450 L 152.839,-451.825 L 151.402,-453.07 L 149.52,-453.341
 L 147.79,-452.551 L 146.762,-450.951 L 146.762,-449.049 L 147.79,-447.449 L 149.52,-446.659 z
M 1.40202,-446.93 L 2.83922,-448.175 L 3.375,-450 L 2.83922,-451.825 L 1.40202,-453.07 L -0.480301,-453.341
 L -2.21014,-452.551 L -3.23828,-450.951 L -3.23828,-449.049 L -2.21014,-447.449 L -0.480301,-446.659 z
M 676.402,-446.93 L 677.839,-448.175 L 678.375,-450 L 677.839,-451.825 L 676.402,-453.07 L 674.52,-453.341
 L 672.79,-452.551 L 671.762,-450.951 L 671.762,-449.049 L 672.79,-447.449 L 674.52,-446.659 z
M 601.402,-446.93 L 602.839,-448.175 L 603.375,-450 L 602.839,-451.825 L 601.402,-453.07 L 599.52,-453.341
 L 597.79,-452.551 L 596.762,-450.951 L 596.762,-449.049 L 597.79,-447.449 L 599.52,-446.659 z
M 451.402,-446.93 L 452.839,-448.175 L 453.375,-450 L 452.839,-451.825 L 451.402,-453.07 L 449.52,-453.341
 L 447.79,-452.551 L 446.762,-450.951 L 446.762,-449.049 L 447.79,-447.449 L 449.52,-446.659 z
M 376.402,-446.93 L 377.839,-448.175 L 378.375,-450 L 377.839,-451.825 L 376.402,-453.07 L 374.52,-453.341
 L 372.79,-452.551 L 371.762,-450.951 L 371.762,-449.049 L 372.79,-447.449 L 374.52,-446.659 z
M 76.402,-446.93 L 77.8392,-448.175 L 78.375,-450 L 77.8392,-451.825 L 76.402,-453.07 L 74.5197,-453.341
 L 72.7898,-452.551 L 71.7617,-450.951 L 71.7617,-449.049 L 72.7898,-447.449 L 74.5197,-446.659 z
M 751.402,-446.93 L 752.839,-448.175 L 753.375,-450 L 752.839,-451.825 L 751.402,-453.07 L 749.52,-453.341
 L 747.79,-452.551 L 746.762,-450.951 L 746.762,-449.049 L 747.79,-447.449 L 749.52,-446.659 z
M 226.402,-446.93 L 227.839,-448.175 L 228.375,-450 L 227.839,-451.825 L 226.402,-453.07 L 224.52,-453.341
 L 222.79,-452.551 L 221.762,-450.951 L 221.762,-449.049 L 222.79,-447.449 L 224.52,-446.659 z
M 526.402,-446.93 L 527.839,-448.175 L 528.375,-450 L 527.839,-451.825 L 526.402,-453.07 L 524.52,-453.341
 L 522.79,-452.551 L 521.762,-450.951 L 521.762,-449.049 L 522.79,-447.449 L 524.52,-446.659 z
M 376.402,-371.93 L 377.839,-373.175 L 378.375,-375 L 377.839,-376.825 L 376.402,-378.07 L 374.52,-378.341
 L 372.79,-377.551 L 371.762,-375.951 L 371.762,-374.049 L 372.79,-372.449 L 374.52,-371.659 z
M 676.402,-371.93 L 677.839,-373.175 L 678.375,-375 L 677.839,-376.825 L 676.402,-378.07 L 674.52,-378.341
 L 672.79,-377.551 L 671.762,-375.951 L 671.762,-374.049 L 672.79,-372.449 L 674.52,-371.659 z
M 751.402,-371.93 L 752.839,-373.175 L 753.375,-375 L 752.839,-376.825 L 751.402,-378.07 L 749.52,-378.341
 L 747.79,-377.551 L 746.762,-375.951 L 746.762,-374.049 L 747.79,-372.449 L 749.52,-371.659 z
M 601.402,-371.93 L 602.839,-373.175 L 603.375,-375 L 602.839,-376.825 L 601.402,-378.07 L 599.52,-378.341
 L 597.79,-377.551 L 596.762,-375.951 L 596.762,-374.049 L 597.79,-372.449 L 599.52,-371.659 z
M 451.402,-371.93 L 452.839,-373.175 L 453.375,-375 L 452.839,-376.825 L 451.402,-378.07 L 449.52,-378.341
 L 447.79,-377.551 L 446.762,-375.951 L 446.762,-374.049 L 447.79,-372.449 L 449.52,-371.659 z
M 526.402,-371.93 L 527.839,-373.175 L 528.375,-375 L 527.839,-376.825 L 526.402,-378.07 L 524.52,-378.341
 L 522.79,-377.551 L 521.762,-375.951 L 521.762,-374.049 L 522.79,-372.449 L 524.52,-371.659 z
M 226.402,-371.93 L 227.839,-373.175 L 228.375,-375 L 227.839,-376.825 L 226.402,-378.07 L 224.52,-378.341
 L 222.79,-377.551 L 221.762,-375.951 L 221.762,-374.049 L 222.79,-372.449 L 224.52,-371.659 z
M 1.40202,-371.93 L 2.83922,-373.175 L 3.375,-375 L 2.83922,-376.825 L 1.40202,-378.07 L -0.480301,-378.341
 L -2.21014,-377.551 L -3.23828,-375.951 L -3.23828,-374.049 L -2.21014,-372.449 L -0.480301,-371.659 z
M 151.402,-371.93 L 152.839,-373.175 L 153.375,-375 L 152.839,-376.825 L 151.402,-378.07 L 149.52,-378.341
 L 147.79,-377.551 L 146.762,-375.951 L 146.762,-374.049 L 147.79,-372.449 L 149.52,-371.659 z
M 76.402,-371.93 L 77.8392,-373.175 L 78.375,-375 L 77.8392,-376.825 L 76.402,-378.07 L 74.5197,-378.341
 L 72.7898,-377.551 L 71.7617,-375.951 L 71.7617,-374.049 L 72.7898,-372.449 L 74.5197,-371.659 z
M 301.402,-371.93 L 302.839,-373.175 L 303.375,-375 L 302.839,-376.825 L 301.402,-378.07 L 299.52,-378.341
 L 297.79,-377.551 L 296.762,-375.951 L 296.762,-374.049 L 297.79,-372.449 L 299.52,-371.659 z
M 451.402,-296.93 L 452.839,-298.175 L 453.375,-300 L 452.839,-301.825 L 451.402,-303.07 L 449.52,-303.341
 L 447.79,-302.551 L 446.762,-300.951 L 446.762,-299.049 L 447.79,-297.449 L 449.52,-296.659 z
M 526.402,-296.93 L 527.839,-298.175 L 528.375,-300 L 527.839,-301.825 L 526.402,-303.07 L 524.52,-303.341
 L 522.79,-302.551 L 521.762,-300.951 L 521.762,-299.049 L 522.79,-297.449 L 524.52,-296.659 z
M 226.402,-296.93 L 227.839,-298.175 L 228.375,-300 L 227.839,-301.825 L 226.402,-303.07 L 224.52,-303.341
 L 222.79,-302.551 L 221.762,-300.951 L 221.762,-299.049 L 222.79,-297.449 L 224.52,-296.659 z
M 151.402,-296.93 L 152.839,-298.175 L 153.375,-300 L 152.839,-301.825 L 151.402,-303.07 L 149.52,-303.341
 L 147.79,-302.551 L 146.762,-300.951 L 146.762,-299.049 L 147.79,-297.449 L 149.52,-296.659 z
M 601.402,-296.93 L 602.839,-298.175 L 603.375,-300 L 602.839,-301.825 L 601.402,-303.07 L 599.52,-303.341
 L 597.79,-302.551 L 596.762,-300.951 L 596.762,-299.049 L 597.79,-297.449 L 599.52,-296.659 z
M 76.402,-296.93 L 77.8392,-298.175 L 78.375,-300 L 77.8392,-301.825 L 76.402,-303.07 L 74.5197,-303.341
 L 72.7898,-302.551 L 71.7617,-300.951 L 71.7617,-299.049 L 72.7898,-297.449 L 74.5197,-296.659 z
M 301.402,-296.93 L 302.839,-298.175 L 303.375,-300 L 302.839,-301.825 L 301.402,-303.07 L 299.52,-303.341
 L 297.79,-302.551 L 296.762,-300.951 L 296.762,-299.049 L 297.79,-297.449 L 299.52,-296.659 z
M 676.402,-296.93 L 677.839,-298.175 L 678.375,-300 L 677.839,-301.825 L 676.402,-303.07 L 674.52,-303.341
 L 672.79,-302.551 L 671.762,-300.951 L 671.762,-299.049 L 672.79,-297.449 L 674.52,-296.659 z
M 1.40202,-296.93 L 2.83922,-298.175 L 3.375,-300 L 2.83922,-301.825 L 1.40202,-303.07 L -0.480301,-303.341
 L -2.21014,-302.551 L -3.23828,-300.951 L -3.23828,-299.049 L -2.21014,-297.449 L -0.480301,-296.659 z
M 751.402,-296.93 L 752.839,-298.175 L 753.375,-300 L 752.839,-301.825 L 751.402,-303.07 L 749.52,-303.341
 L 747.79,-302.551 L 746.762,-300.951 L 746.762,-299.049 L 747.79,-297.449 L 749.52,-296.659 z
M 376.402,-296.93 L 377.839,-298.175 L 378.375,-300 L 377.839,-301.825 L 376.402,-303.07 L 374.52,-303.341
 L 372.79,-302.551 L 371.762,-300.951 L 371.762,-299.049 L 372.79,-297.449 L 374.52,-296.659 z
M 376.402,-221.93 L 377.839,-223.175 L 378.375,-225 L 377.839,-226.825 L 376.402,-228.07 L 374.52,-228.341
 L 372.79,-227.551 L 371.762,-225.951 L 371.762,-224.049 L 372.79,-222.449 L 374.52,-221.659 z
M 76.402,-221.93 L 77.8392,-223.175 L 78.375,-225 L 77.8392,-226.825 L 76.402,-228.07 L 74.5197,-228.341
 L 72.7898,-227.551 L 71.7617,-225.951 L 71.7617,-224.049 L 72.7898,-222.449 L 74.5197,-221.659 z
M 601.402,-221.93 L 602.839,-223.175 L 603.375,-225 L 602.839,-226.825 L 601.402,-228.07 L 599.52,-228.341
 L 597.79,-227.551 L 596.762,-225.951 L 596.762,-224.049 L 597.79,-222.449 L 599.52,-221.659 z
M 676.402,-221.93 L 677.839,-223.175 L 678.375,-225 L 677.839,-226.825 L 676.402,-228.07 L 674.52,-228.341
 L 672.79,-227.551 L 671.762,-225.951 L 671.762,-224.049 L 672.79,-222.449 L 674.52,-221.659 z
M 1.40202,-221.93 L 2.83922,-223.175 L 3.375,-225 L 2.83922,-226.825 L 1.40202,-228.07 L -0.480301,-228.341
 L -2.21014,-227.551 L -3.23828,-225.951 L -3.23828,-224.049 L -2.21014,-222.449 L -0.480301,-221.659 z
M 151.402,-221.93 L 152.839,-223.175 L 153.375,-225 L 152.839,-226.825 L 151.402,-228.07 L 149.52,-228.341
 L 147.79,-227.551 L 146.762,-225.951 L 146.762,-224.049 L 147.79,-222.449 L 149.52,-221.659 z
M 751.402,-221.93 L 752.839,-223.175 L 753.375,-225 L 752.839,-226.825 L 751.402,-228.07 L 749.52,-228.341
 L 747.79,-227.551 L 746.762,-225.951 L 746.762,-224.049 L 747.79,-222.449 L 749.52,-221.659 z
M 451.402,-221.93 L 452.839,-223.175 L 453.375,-225 L 452.839,-226.825 L 451.402,-228.07 L 449.52,-228.341
 L 447.79,-227.551 L 446.762,-225.951 L 446.762,-224.049 L 447.79,-222.449 L 449.52,-221.659 z
M 526.402,-221.93 L 527.839,-223.175 L 528.375,-225 L 527.839,-226.825 L 526.402,-228.07 L 524.52,-228.341
 L 522.79,-227.551 L 521.762,-225.951 L 521.762,-224.049 L 522.79,-222.449 L 524.52,-221.659 z
M 301.402,-221.93 L 302.839,-223.175 L 303.375,-225 L 302.839,-226.825 L 301.402,-228.07 L 299.52,-228.341
 L 297.79,-227.551 L 296.762,-225.951 L 296.762,-224.049 L 297.79,-222.449 L 299.52,-221.659 z
M 226.402,-221.93 L 227.839,-223.175 L 228.375,-225 L 227.839,-226.825 L 226.402,-228.07 L 224.52,-228.341
 L 222.79,-227.551 L 221.762,-225.951 L 221.762,-224.049 L 222.79,-222.449 L 224.52,-221.659 z
M 1.40202,-146.93 L 2.83922,-148.175 L 3.375,-150 L 2.83922,-151.825 L 1.40202,-153.07 L -0.480301,-153.341
 L -2.21014,-152.551 L -3.23828,-150.951 L -3.23828,-149.049 L -2.21014,-147.449 L -0.480301,-146.659 z
M 451.402,-146.93 L 452.839,-148.175 L 453.375,-150 L 452.839,-151.825 L 451.402,-153.07 L 449.52,-153.341
 L 447.79,-152.551 L 446.762,-150.951 L 446.762,-149.049 L 447.79,-147.449 L 449.52,-146.659 z
M 76.402,-146.93 L 77.8392,-148.175 L 78.375,-150 L 77.8392,-151.825 L 76.402,-153.07 L 74.5197,-153.341
 L 72.7898,-152.551 L 71.7617,-150.951 L 71.7617,-149.049 L 72.7898,-147.449 L 74.5197,-146.659 z
M 301.402,-146.93 L 302.839,-148.175 L 303.375,-150 L 302.839,-151.825 L 301.402,-153.07 L 299.52,-153.341
 L 297.79,-152.551 L 296.762,-150.951 L 296.762,-149.049 L 297.79,-147.449 L 299.52,-146.659 z
M 676.402,-146.93 L 677.839,-148.175 L 678.375,-150 L 677.839,-151.825 L 676.402,-153.07 L 674.52,-153.341
 L 672.79,-152.551 L 671.762,-150.951 L 671.762,-149.049 L 672.79,-147.449 L 674.52,-146.659 z
M 601.402,-146.93 L 602.839,-148.175 L 603.375,-150 L 602.839,-151.825 L 601.402,-153.07 L 599.52,-153.341
 L 597.79,-152.551 L 596.762,-150.951 L 596.762,-149.049 L 597.79,-147.449 L 599.52,-146.659 z
M 226.402,-146.93 L 227.839,-148.175 L 228.375,-150 L 227.839,-151.825 L 226.402,-153.07 L 224.52,-153.341
 L 222.79,-152.551 L 221.762,-150.951 L 221.762,-149.049 L 222.79,-147.449 L 224.52,-146.659 z
M 151.402,-146.93 L 152.839,-148.175 L 153.375,-150 L 152.839,-151.825 L 151.402,-153.07 L 149.52,-153.341
 L 147.79,-152.551 L 146.762,-150.951 L 146.762,-149.049 L 147.79,-147.449 L 149.52,-146.659 z
M 376.402,-146.93 L 377.839,-148.175 L 378.375,-150 L 377.839,-151.825 L 376.402,-153.07 L 374.52,-153.341
 L 372.79,-152.551 L 371.762,-150.951 L 371.762,-149.049 L 372.79,-147.449 L 374.52,-146.659 z
M 751.402,-146.93 L 752.839,-148.175 L 753.375,-150 L 752.839,-151.825 L 751.402,-153.07 L 749.52,-153.341
 L 747.79,-152.551 L 746.762,-150.951 L 746.762,-149.049 L 747.79,-147.449 L 749.52,-146.659 z
M 526.402,-146.93 L 527.839,-148.175 L 528.375,-150 L 527.839,-151.825 L 526.402,-153.07 L 524.52,-153.341
 L 522.79,-152.551 L 521.762,-150.951 L 521.762,-149.049 L 522.79,-147.449 L 524.52,-146.659 z
M 451.402,-71.93 L 452.839,-73.1753 L 453.375,-75 L 452.839,-76.8247 L 451.402,-78.07 L 449.52,-78.3406
 L 447.79,-77.5506 L 446.762,-75.9508 L 446.762,-74.0491 L 447.79,-72.4493 L 449.52,-71.6593 z
M 1.40202,-71.93 L 2.83922,-73.1753 L 3.375,-75 L 2.83922,-76.8247 L 1.40202,-78.07 L -0.480301,-78.3406
 L -2.21014,-77.5506 L -3.23828,-75.9508 L -3.23828,-74.0491 L -2.21014,-72.4493 L -0.480301,-71.6593 z
M 301.402,-71.93 L 302.839,-73.1753 L 303.375,-75 L 302.839,-76.8247 L 301.402,-78.07 L 299.52,-78.3406
 L 297.79,-77.5506 L 296.762,-75.9508 L 296.762,-74.0491 L 297.79,-72.4493 L 299.52,-71.6593 z
M 676.402,-71.93 L 677.839,-73.1753 L 678.375,-75 L 677.839,-76.8247 L 676.402,-78.07 L 674.52,-78.3406
 L 672.79,-77.5506 L 671.762,-75.9508 L 671.762,-74.0491 L 672.79,-72.4493 L 674.52,-71.6593 z
M 376.402,-71.93 L 377.839,-73.1753 L 378.375,-75 L 377.839,-76.8247 L 376.402,-78.07 L 374.52,-78.3406
 L 372.79,-77.5506 L 371.762,-75.9508 L 371.762,-74.0491 L 372.79,-72.4493 L 374.52,-71.6593 z
M 751.402,-71.93 L 752.839,-73.1753 L 753.375,-75 L 752.839,-76.8247 L 751.402,-78.07 L 749.52,-78.3406
 L 747.79,-77.5506 L 746.762,-75.9508 L 746.762,-74.0491 L 747.79,-72.4493 L 749.52,-71.6593 z
M 76.402,-71.93 L 77.8392,-73.1753 L 78.375,-75 L 77.8392,-76.8247 L 76.402,-78.07 L 74.5197,-78.3406
 L 72.7898,-77.5506 L 71.7617,-75.9508 L 71.7617,-74.0491 L 72.7898,-72.4493 L 74.5197,-71.6593 z
M 601.402,-71.93 L 602.839,-73.1753 L 603.375,-75 L 602.839,-76.8247 L 601.402,-78.07 L 599.52,-78.3406
 L 597.79,-77.5506 L 596.762,-75.9508 L 596.762,-74.0491 L 597.79,-72.4493 L 599.52,-71.6593 z
M 226.402,-71.93 L 227.839,-73.1753 L 228.375,-75 L 227.839,-76.8247 L 226.402,-78.07 L 224.52,-78.3406
 L 222.79,-77.5506 L 221.762,-75.9508 L 221.762,-74.0491 L 222.79,-72.4493 L 224.52,-71.6593 z
M 151.402,-71.93 L 152.839,-73.1753 L 153.375,-75 L 152.839,-76.8247 L 151.402,-78.07 L 149.52,-78.3406
 L 147.79,-77.5506 L 146.762,-75.9508 L 146.762,-74.0491 L 147.79,-72.4493 L 149.52,-71.6593 z
M 526.402,-71.93 L 527.839,-73.1753 L 528.375,-75 L 527.839,-76.8247 L 526.402,-78.07 L 524.52,-78.3406
 L 522.79,-77.5506 L 521.762,-75.9508 L 521.762,-74.0491 L 522.79,-72.4493 L 524.52,-71.6593 z
M 76.402,3.07001 L 77.8392,1.82466 L 78.375,-0 L 77.8392,-1.82466 L 76.402,-3.07001 L 74.5197,-3.34064
 L 72.7898,-2.55064 L 71.7617,-0.950836 L 71.7617,0.950836 L 72.7898,2.55064 L 74.5197,3.34064 z
M 601.402,3.07001 L 602.839,1.82466 L 603.375,-0 L 602.839,-1.82466 L 601.402,-3.07001 L 599.52,-3.34064
 L 597.79,-2.55064 L 596.762,-0.950836 L 596.762,0.950836 L 597.79,2.55064 L 599.52,3.34064 z
M 676.402,3.07001 L 677.839,1.82466 L 678.375,-0 L 677.839,-1.82466 L 676.402,-3.07001 L 674.52,-3.34064
 L 672.79,-2.55064 L 671.762,-0.950836 L 671.762,0.950836 L 672.79,2.55064 L 674.52,3.34064 z
M 1.40202,3.07001 L 2.83922,1.82466 L 3.375,-0 L 2.83922,-1.82466 L 1.40202,-3.07001 L -0.480301,-3.34064
 L -2.21014,-2.55064 L -3.23828,-0.950836 L -3.23828,0.950836 L -2.21014,2.55064 L -0.480301,3.34064 z
M 451.402,3.07001 L 452.839,1.82466 L 453.375,-0 L 452.839,-1.82466 L 451.402,-3.07001 L 449.52,-3.34064
 L 447.79,-2.55064 L 446.762,-0.950836 L 446.762,0.950836 L 447.79,2.55064 L 449.52,3.34064 z
M 226.402,3.07001 L 227.839,1.82466 L 228.375,-0 L 227.839,-1.82466 L 226.402,-3.07001 L 224.52,-3.34064
 L 222.79,-2.55064 L 221.762,-0.950836 L 221.762,0.950836 L 222.79,2.55064 L 224.52,3.34064 z
M 301.402,3.07001 L 302.839,1.82466 L 303.375,-0 L 302.839,-1.82466 L 301.402,-3.07001 L 299.52,-3.34064
 L 297.79,-2.55064 L 296.762,-0.950836 L 296.762,0.950836 L 297.79,2.55064 L 299.52,3.34064 z
M 376.402,3.07001 L 377.839,1.82466 L 378.375,-0 L 377.839,-1.82466 L 376.402,-3.07001 L 374.52,-3.34064
 L 372.79,-2.55064 L 371.762,-0.950836 L 371.762,0.950836 L 372.79,2.55064 L 374.52,3.34064 z
M 151.402,3.07001 L 152.839,1.82466 L 153.375,-0 L 152.839,-1.82466 L 151.402,-3.07001 L 149.52,-3.34064
 L 147.79,-2.55064 L 146.762,-0.950836 L 146.762,0.950836 L 147.79,2.55064 L 149.52,3.34064 z
M 526.402,3.07001 L 527.839,1.82466 L 528.375,-0 L 527.839,-1.82466 L 526.402,-3.07001 L 524.52,-3.34064
 L 522.79,-2.55064 L 521.762,-0.950836 L 521.762,0.950836 L 522.79,2.55064 L 524.52,3.34064 z
M 751.402,3.07001 L 752.839,1.82466 L 753.375,-0 L 752.839,-1.82466 L 751.402,-3.07001 L 749.52,-3.34064
 L 747.79,-2.55064 L 746.762,-0.950836 L 746.762,0.950836 L 747.79,2.55064 L 749.52,3.34064 z
" stroke="black" fill="lightgray" stroke-width="0.5"/>
</svg>
