<?xml version="1.0" standalone="no"?>
<!DOCTYPE svg PUBLIC "-//W3C//DTD SVG 1.1//EN" "http://www.w3.org/Graphics/SVG/1.1/DTD/svg11.dtd">
<svg width="730mm" height="723mm" viewBox="-22 -706 730 723" xmlns="http://www.w3.org/2000/svg" version="1.1">
<title>OpenSCAD Model</title>
<path d="
M -9.92421,-695.264 L -9.25096,-695.501 L -8.67821,-695.896 L -8.20596,-696.449 L -7.83672,-697.152 L -7.57297,-697.997
 L -7.41472,-698.984 L -7.36195,-700.112 L -7.41222,-701.258 L -7.56296,-702.253 L -7.81421,-703.1 L -8.16595,-703.796
 L -8.62277,-704.341 L -9.19022,-704.729 L -9.86827,-704.963 L -10.657,-705.04 L -11.4667,-704.964 L -12.16,-704.733
 L -12.7367,-704.348 L -13.197,-703.809 L -13.5483,-703.117 L -13.7992,-702.27 L -13.9498,-701.269 L -14,-700.112
 L -13.9483,-698.978 L -13.7932,-697.988 L -13.5348,-697.143 L -13.173,-696.442 L -12.7081,-695.892 L -12.1407,-695.499
 L -11.4706,-695.263 L -10.698,-695.185 z
M -11.1898,-696.241 L -11.6225,-696.418 L -11.9818,-696.713 L -12.268,-697.127 L -12.4858,-697.668 L -12.6415,-698.346
 L -12.7348,-699.161 L -12.766,-700.112 L -12.7353,-701.089 L -12.6432,-701.918 L -12.4898,-702.599 L -12.275,-703.132
 L -11.9893,-703.534 L -11.6245,-703.821 L -11.1803,-703.993 L -10.657,-704.05 L -10.1467,-703.992 L -9.71396,-703.817
 L -9.3587,-703.526 L -9.08096,-703.118 L -8.87184,-702.581 L -8.72246,-701.901 L -8.63284,-701.078 L -8.60297,-700.112
 L -8.63434,-699.178 L -8.72845,-698.372 L -8.88533,-697.695 L -9.10497,-697.148 L -9.39153,-696.725 L -9.75021,-696.423
 L -10.181,-696.242 L -10.684,-696.182 z
M -18.3171,-695.967 L -18.2607,-696.61 L -18.1666,-697.242 L -18.0349,-697.863 L -17.8651,-698.481 L -17.6577,-699.103
 L -17.4126,-699.729 L -17.1299,-700.359 L -16.7741,-701.053 L -16.3107,-701.867 L -15.7396,-702.802 L -15.0609,-703.858
 L -15.0609,-704.848 L -21.3739,-704.848 L -21.3739,-703.81 L -16.2409,-703.81 L -17.0844,-702.533 L -17.7979,-701.331
 L -18.3814,-700.207 L -18.8349,-699.159 L -19.1744,-698.161 L -19.4169,-697.188 L -19.5624,-696.238 L -19.6109,-695.312
 L -18.3359,-695.312 z
M -17.3745,-645.239 L -16.7692,-645.404 L -16.242,-645.678 L -15.7929,-646.062 L -15.4337,-646.541 L -15.1772,-647.1
 L -15.0232,-647.739 L -14.9719,-648.458 L -15.0205,-649.123 L -15.1662,-649.717 L -15.409,-650.239 L -15.7489,-650.689
 L -16.1711,-651.053 L -16.6617,-651.313 L -17.2206,-651.469 L -17.8479,-651.52 L -18.2265,-651.5 L -18.5832,-651.44
 L -18.918,-651.339 L -19.2309,-651.197 L -19.5159,-651.018 L -19.7669,-650.802 L -19.9839,-650.549 L -20.1669,-650.258
 L -20.1311,-651.126 L -20.0237,-651.885 L -19.8446,-652.535 L -19.5939,-653.076 L -19.2779,-653.503 L -18.9029,-653.807
 L -18.4689,-653.99 L -17.9759,-654.05 L -17.4224,-653.978 L -16.9757,-653.759 L -16.6359,-653.395 L -16.4029,-652.884
 L -15.2369,-653.094 L -15.6184,-653.946 L -16.1999,-654.554 L -16.9814,-654.919 L -17.9629,-655.04 L -18.7364,-654.957
 L -19.4159,-654.707 L -20.0014,-654.291 L -20.4929,-653.707 L -20.8814,-652.969 L -21.1589,-652.087 L -21.3254,-651.06
 L -21.3809,-649.889 L -21.3276,-648.808 L -21.1674,-647.864 L -20.9006,-647.057 L -20.5269,-646.388 L -20.052,-645.861
 L -19.4822,-645.485 L -18.8175,-645.26 L -18.0579,-645.185 z
M -18.5061,-646.212 L -18.8757,-646.345 L -19.2066,-646.566 L -19.4989,-646.877 L -19.7378,-647.256 L -19.9084,-647.686
 L -20.0108,-648.166 L -20.0449,-648.697 L -20.0121,-649.112 L -19.9137,-649.481 L -19.7496,-649.802 L -19.5199,-650.076
 L -19.2364,-650.296 L -18.9117,-650.452 L -18.5459,-650.546 L -18.1389,-650.577 L -17.7095,-650.542 L -17.3302,-650.436
 L -17.001,-650.259 L -16.7219,-650.011 L -16.4992,-649.699 L -16.3402,-649.327 L -16.2447,-648.895 L -16.2129,-648.404
 L -16.2443,-647.91 L -16.3384,-647.472 L -16.4953,-647.09 L -16.7149,-646.764 L -16.9896,-646.503 L -17.3117,-646.317
 L -17.6811,-646.205 L -18.0979,-646.168 z
M -10.0395,-645.239 L -9.37296,-645.401 L -8.79346,-645.671 L -8.30096,-646.049 L -7.90765,-646.521 L -7.62671,-647.074
 L -7.45815,-647.707 L -7.40196,-648.421 L -7.45433,-649.051 L -7.61147,-649.62 L -7.87334,-650.125 L -8.23996,-650.568
 L -8.69434,-650.929 L -9.22046,-651.186 L -9.81833,-651.341 L -10.488,-651.392 L -11.0538,-651.354 L -11.5712,-651.24
 L -12.0403,-651.049 L -12.461,-650.782 L -12.278,-653.81 L -7.95796,-653.81 L -7.95796,-654.848 L -13.39,-654.848
 L -13.709,-649.711 L -12.515,-649.711 L -12.3015,-649.883 L -12.088,-650.029 L -11.8745,-650.148 L -11.661,-650.239
 L -11.4428,-650.308 L -11.2162,-650.356 L -10.9813,-650.386 L -10.738,-650.395 L -10.2878,-650.361 L -9.88646,-650.257
 L -9.53383,-650.084 L -9.22997,-649.843 L -8.98495,-649.545 L -8.80997,-649.204 L -8.70496,-648.82 L -8.66997,-648.394
 L -8.70471,-647.905 L -8.80896,-647.472 L -8.98271,-647.094 L -9.22597,-646.772 L -9.53072,-646.513 L -9.88896,-646.329
 L -10.3007,-646.218 L -10.766,-646.182 L -11.4901,-646.27 L -12.0627,-646.536 L -12.4836,-646.979 L -12.753,-647.6
 L -13.987,-647.458 L -13.8408,-646.937 L -13.6192,-646.482 L -13.3223,-646.092 L -12.95,-645.768 L -12.5073,-645.512
 L -12.0002,-645.33 L -11.4288,-645.221 L -10.793,-645.185 z
M -9.92421,-595.264 L -9.25096,-595.501 L -8.67821,-595.896 L -8.20596,-596.449 L -7.83672,-597.152 L -7.57297,-597.997
 L -7.41472,-598.984 L -7.36195,-600.112 L -7.41222,-601.258 L -7.56296,-602.253 L -7.81421,-603.1 L -8.16595,-603.796
 L -8.62277,-604.341 L -9.19022,-604.729 L -9.86827,-604.963 L -10.657,-605.04 L -11.4667,-604.964 L -12.16,-604.733
 L -12.7367,-604.348 L -13.197,-603.809 L -13.5483,-603.117 L -13.7992,-602.27 L -13.9498,-601.269 L -14,-600.112
 L -13.9483,-598.978 L -13.7932,-597.988 L -13.5348,-597.143 L -13.173,-596.442 L -12.7081,-595.892 L -12.1407,-595.499
 L -11.4706,-595.263 L -10.698,-595.185 z
M -11.1898,-596.241 L -11.6225,-596.418 L -11.9818,-596.713 L -12.268,-597.127 L -12.4858,-597.668 L -12.6415,-598.346
 L -12.7348,-599.161 L -12.766,-600.112 L -12.7353,-601.089 L -12.6432,-601.918 L -12.4898,-602.599 L -12.275,-603.132
 L -11.9893,-603.534 L -11.6245,-603.821 L -11.1803,-603.993 L -10.657,-604.05 L -10.1467,-603.992 L -9.71396,-603.817
 L -9.3587,-603.526 L -9.08096,-603.118 L -8.87184,-602.581 L -8.72246,-601.901 L -8.63284,-601.078 L -8.60297,-600.112
 L -8.63434,-599.178 L -8.72845,-598.372 L -8.88533,-597.695 L -9.10497,-597.148 L -9.39153,-596.725 L -9.75021,-596.423
 L -10.181,-596.242 L -10.684,-596.182 z
M -17.3745,-595.239 L -16.7692,-595.404 L -16.242,-595.678 L -15.7929,-596.062 L -15.4337,-596.541 L -15.1772,-597.1
 L -15.0232,-597.739 L -14.9719,-598.458 L -15.0205,-599.123 L -15.1662,-599.717 L -15.409,-600.239 L -15.7489,-600.689
 L -16.1711,-601.053 L -16.6617,-601.313 L -17.2206,-601.469 L -17.8479,-601.52 L -18.2265,-601.5 L -18.5832,-601.44
 L -18.918,-601.339 L -19.2309,-601.197 L -19.5159,-601.018 L -19.7669,-600.802 L -19.9839,-600.549 L -20.1669,-600.258
 L -20.1311,-601.126 L -20.0237,-601.885 L -19.8446,-602.535 L -19.5939,-603.076 L -19.2779,-603.503 L -18.9029,-603.807
 L -18.4689,-603.99 L -17.9759,-604.05 L -17.4224,-603.978 L -16.9757,-603.759 L -16.6359,-603.395 L -16.4029,-602.884
 L -15.2369,-603.094 L -15.6184,-603.946 L -16.1999,-604.554 L -16.9814,-604.919 L -17.9629,-605.04 L -18.7364,-604.957
 L -19.4159,-604.707 L -20.0014,-604.291 L -20.4929,-603.707 L -20.8814,-602.969 L -21.1589,-602.087 L -21.3254,-601.06
 L -21.3809,-599.889 L -21.3276,-598.808 L -21.1674,-597.864 L -20.9006,-597.057 L -20.5269,-596.388 L -20.052,-595.861
 L -19.4822,-595.485 L -18.8175,-595.26 L -18.0579,-595.185 z
M -18.5061,-596.212 L -18.8757,-596.345 L -19.2066,-596.566 L -19.4989,-596.877 L -19.7378,-597.256 L -19.9084,-597.686
 L -20.0108,-598.166 L -20.0449,-598.697 L -20.0121,-599.112 L -19.9137,-599.481 L -19.7496,-599.802 L -19.5199,-600.076
 L -19.2364,-600.296 L -18.9117,-600.452 L -18.5459,-600.546 L -18.1389,-600.577 L -17.7095,-600.542 L -17.3302,-600.436
 L -17.001,-600.259 L -16.7219,-600.011 L -16.4992,-599.699 L -16.3402,-599.327 L -16.2447,-598.895 L -16.2129,-598.404
 L -16.2443,-597.91 L -16.3384,-597.472 L -16.4953,-597.09 L -16.7149,-596.764 L -16.9896,-596.503 L -17.3117,-596.317
 L -17.6811,-596.205 L -18.0979,-596.168 z
M -10.0395,-545.332 L -9.37296,-545.494 L -8.79346,-545.764 L -8.30096,-546.142 L -7.90765,-546.615 L -7.62671,-547.168
 L -7.45815,-547.801 L -7.40196,-548.514 L -7.45433,-549.145 L -7.61147,-549.713 L -7.87334,-550.219 L -8.23996,-550.662
 L -8.69434,-551.023 L -9.22046,-551.28 L -9.81833,-551.435 L -10.488,-551.486 L -11.0538,-551.448 L -11.5712,-551.334
 L -12.0403,-551.143 L -12.461,-550.876 L -12.278,-553.904 L -7.95796,-553.904 L -7.95796,-554.942 L -13.39,-554.942
 L -13.709,-549.804 L -12.515,-549.804 L -12.3015,-549.977 L -12.088,-550.123 L -11.8745,-550.242 L -11.661,-550.333
 L -11.4428,-550.401 L -11.2162,-550.45 L -10.9813,-550.479 L -10.738,-550.489 L -10.2878,-550.455 L -9.88646,-550.351
 L -9.53383,-550.178 L -9.22997,-549.936 L -8.98495,-549.638 L -8.80997,-549.298 L -8.70496,-548.914 L -8.66997,-548.487
 L -8.70471,-547.999 L -8.80896,-547.566 L -8.98271,-547.188 L -9.22597,-546.865 L -9.53072,-546.607 L -9.88896,-546.423
 L -10.3007,-546.312 L -10.766,-546.275 L -11.4901,-546.364 L -12.0627,-546.63 L -12.4836,-547.073 L -12.753,-547.693
 L -13.987,-547.551 L -13.8408,-547.031 L -13.6192,-546.576 L -13.3223,-546.186 L -12.95,-545.861 L -12.5073,-545.606
 L -12.0002,-545.424 L -11.4288,-545.315 L -10.793,-545.278 z
M -17.5824,-545.332 L -16.9159,-545.494 L -16.3364,-545.764 L -15.8439,-546.142 L -15.4506,-546.615 L -15.1697,-547.168
 L -15.0011,-547.801 L -14.9449,-548.514 L -14.9973,-549.145 L -15.1544,-549.713 L -15.4163,-550.219 L -15.7829,-550.662
 L -16.2373,-551.023 L -16.7634,-551.28 L -17.3613,-551.435 L -18.0309,-551.486 L -18.5967,-551.448 L -19.1142,-551.334
 L -19.5832,-551.143 L -20.0039,-550.876 L -19.8209,-553.904 L -15.5009,-553.904 L -15.5009,-554.942 L -20.9329,-554.942
 L -21.2519,-549.804 L -20.0579,-549.804 L -19.8444,-549.977 L -19.6309,-550.123 L -19.4174,-550.242 L -19.2039,-550.333
 L -18.9857,-550.401 L -18.7592,-550.45 L -18.5242,-550.479 L -18.2809,-550.489 L -17.8308,-550.455 L -17.4294,-550.351
 L -17.0768,-550.178 L -16.7729,-549.936 L -16.5279,-549.638 L -16.3529,-549.298 L -16.2479,-548.914 L -16.2129,-548.487
 L -16.2477,-547.999 L -16.3519,-547.566 L -16.5257,-547.188 L -16.7689,-546.865 L -17.0737,-546.607 L -17.4319,-546.423
 L -17.8437,-546.312 L -18.3089,-546.275 L -19.0331,-546.364 L -19.6057,-546.63 L -20.0266,-547.073 L -20.2959,-547.693
 L -21.5299,-547.551 L -21.3837,-547.031 L -21.1622,-546.576 L -20.8652,-546.186 L -20.4929,-545.861 L -20.0502,-545.606
 L -19.5432,-545.424 L -18.9717,-545.315 L -18.3359,-545.278 z
M -9.92421,-495.264 L -9.25096,-495.501 L -8.67821,-495.896 L -8.20596,-496.449 L -7.83672,-497.152 L -7.57297,-497.997
 L -7.41472,-498.984 L -7.36195,-500.112 L -7.41222,-501.258 L -7.56296,-502.253 L -7.81421,-503.1 L -8.16595,-503.796
 L -8.62277,-504.341 L -9.19022,-504.729 L -9.86827,-504.963 L -10.657,-505.04 L -11.4667,-504.964 L -12.16,-504.733
 L -12.7367,-504.348 L -13.197,-503.809 L -13.5483,-503.117 L -13.7992,-502.27 L -13.9498,-501.269 L -14,-500.112
 L -13.9483,-498.978 L -13.7932,-497.988 L -13.5348,-497.143 L -13.173,-496.442 L -12.7081,-495.892 L -12.1407,-495.499
 L -11.4706,-495.263 L -10.698,-495.185 z
M -11.1898,-496.241 L -11.6225,-496.418 L -11.9818,-496.713 L -12.268,-497.127 L -12.4858,-497.668 L -12.6415,-498.346
 L -12.7348,-499.161 L -12.766,-500.112 L -12.7353,-501.089 L -12.6432,-501.918 L -12.4898,-502.599 L -12.275,-503.132
 L -11.9893,-503.534 L -11.6245,-503.821 L -11.1803,-503.993 L -10.657,-504.05 L -10.1467,-503.992 L -9.71396,-503.817
 L -9.3587,-503.526 L -9.08096,-503.118 L -8.87184,-502.581 L -8.72246,-501.901 L -8.63284,-501.078 L -8.60297,-500.112
 L -8.63434,-499.178 L -8.72845,-498.372 L -8.88533,-497.695 L -9.10497,-497.148 L -9.39153,-496.725 L -9.75021,-496.423
 L -10.181,-496.242 L -10.684,-496.182 z
M -17.5824,-495.239 L -16.9159,-495.401 L -16.3364,-495.671 L -15.8439,-496.049 L -15.4506,-496.521 L -15.1697,-497.074
 L -15.0011,-497.707 L -14.9449,-498.421 L -14.9973,-499.051 L -15.1544,-499.62 L -15.4163,-500.125 L -15.7829,-500.568
 L -16.2373,-500.929 L -16.7634,-501.186 L -17.3613,-501.341 L -18.0309,-501.392 L -18.5967,-501.354 L -19.1142,-501.24
 L -19.5832,-501.049 L -20.0039,-500.782 L -19.8209,-503.81 L -15.5009,-503.81 L -15.5009,-504.848 L -20.9329,-504.848
 L -21.2519,-499.711 L -20.0579,-499.711 L -19.8444,-499.883 L -19.6309,-500.029 L -19.4174,-500.148 L -19.2039,-500.239
 L -18.9857,-500.308 L -18.7592,-500.356 L -18.5242,-500.386 L -18.2809,-500.395 L -17.8308,-500.361 L -17.4294,-500.257
 L -17.0768,-500.084 L -16.7729,-499.843 L -16.5279,-499.545 L -16.3529,-499.204 L -16.2479,-498.82 L -16.2129,-498.394
 L -16.2477,-497.905 L -16.3519,-497.472 L -16.5257,-497.094 L -16.7689,-496.772 L -17.0737,-496.513 L -17.4319,-496.329
 L -17.8437,-496.218 L -18.3089,-496.182 L -19.0331,-496.27 L -19.6057,-496.536 L -20.0266,-496.979 L -20.2959,-497.6
 L -21.5299,-497.458 L -21.3837,-496.937 L -21.1622,-496.482 L -20.8652,-496.092 L -20.4929,-495.768 L -20.0502,-495.512
 L -19.5432,-495.33 L -18.9717,-495.221 L -18.3359,-495.185 z
M -10.0395,-445.332 L -9.37296,-445.494 L -8.79346,-445.764 L -8.30096,-446.142 L -7.90765,-446.615 L -7.62671,-447.168
 L -7.45815,-447.801 L -7.40196,-448.514 L -7.45433,-449.145 L -7.61147,-449.713 L -7.87334,-450.219 L -8.23996,-450.662
 L -8.69434,-451.023 L -9.22046,-451.28 L -9.81833,-451.435 L -10.488,-451.486 L -11.0538,-451.448 L -11.5712,-451.334
 L -12.0403,-451.143 L -12.461,-450.876 L -12.278,-453.904 L -7.95796,-453.904 L -7.95796,-454.942 L -13.39,-454.942
 L -13.709,-449.804 L -12.515,-449.804 L -12.3015,-449.977 L -12.088,-450.123 L -11.8745,-450.242 L -11.661,-450.333
 L -11.4428,-450.401 L -11.2162,-450.45 L -10.9813,-450.479 L -10.738,-450.489 L -10.2878,-450.455 L -9.88646,-450.351
 L -9.53383,-450.178 L -9.22997,-449.936 L -8.98495,-449.638 L -8.80997,-449.298 L -8.70496,-448.914 L -8.66997,-448.487
 L -8.70471,-447.999 L -8.80896,-447.566 L -8.98271,-447.188 L -9.22597,-446.865 L -9.53072,-446.607 L -9.88896,-446.423
 L -10.3007,-446.312 L -10.766,-446.275 L -11.4901,-446.364 L -12.0627,-446.63 L -12.4836,-447.073 L -12.753,-447.693
 L -13.987,-447.551 L -13.8408,-447.031 L -13.6192,-446.576 L -13.3223,-446.186 L -12.95,-445.861 L -12.5073,-445.606
 L -12.0002,-445.424 L -11.4288,-445.315 L -10.793,-445.278 z
M -16.1119,-447.579 L -14.7689,-447.579 L -14.7689,-448.542 L -16.1119,-448.542 L -16.1119,-454.942 L -17.3939,-454.942
 L -21.7669,-448.525 L -21.7669,-447.579 L -17.2649,-447.579 L -17.2649,-445.406 L -16.1119,-445.406 z
M -20.6419,-448.542 L -20.5339,-448.677 L -20.1669,-449.176 L -17.7189,-452.763 L -17.6694,-452.839 L -17.6089,-452.938
 L -17.5374,-453.062 L -17.4549,-453.208 L -17.3771,-453.349 L -17.3194,-453.456 L -17.2821,-453.528 L -17.2649,-453.565
 L -17.2649,-448.542 z
M -9.92421,-395.264 L -9.25096,-395.501 L -8.67821,-395.896 L -8.20596,-396.449 L -7.83672,-397.152 L -7.57297,-397.997
 L -7.41472,-398.984 L -7.36195,-400.112 L -7.41222,-401.258 L -7.56296,-402.253 L -7.81421,-403.1 L -8.16595,-403.796
 L -8.62277,-404.341 L -9.19022,-404.729 L -9.86827,-404.963 L -10.657,-405.04 L -11.4667,-404.964 L -12.16,-404.733
 L -12.7367,-404.348 L -13.197,-403.809 L -13.5483,-403.117 L -13.7992,-402.27 L -13.9498,-401.269 L -14,-400.112
 L -13.9483,-398.978 L -13.7932,-397.988 L -13.5348,-397.143 L -13.173,-396.442 L -12.7081,-395.892 L -12.1407,-395.499
 L -11.4706,-395.263 L -10.698,-395.185 z
M -11.1898,-396.241 L -11.6225,-396.418 L -11.9818,-396.713 L -12.268,-397.127 L -12.4858,-397.668 L -12.6415,-398.346
 L -12.7348,-399.161 L -12.766,-400.112 L -12.7353,-401.089 L -12.6432,-401.918 L -12.4898,-402.599 L -12.275,-403.132
 L -11.9893,-403.534 L -11.6245,-403.821 L -11.1803,-403.993 L -10.657,-404.05 L -10.1467,-403.992 L -9.71396,-403.817
 L -9.3587,-403.526 L -9.08096,-403.118 L -8.87184,-402.581 L -8.72246,-401.901 L -8.63284,-401.078 L -8.60297,-400.112
 L -8.63434,-399.178 L -8.72845,-398.372 L -8.88533,-397.695 L -9.10497,-397.148 L -9.39153,-396.725 L -9.75021,-396.423
 L -10.181,-396.242 L -10.684,-396.182 z
M -16.1119,-397.486 L -14.7689,-397.486 L -14.7689,-398.449 L -16.1119,-398.449 L -16.1119,-404.848 L -17.3939,-404.848
 L -21.7669,-398.432 L -21.7669,-397.486 L -17.2649,-397.486 L -17.2649,-395.312 L -16.1119,-395.312 z
M -20.6419,-398.449 L -20.5339,-398.584 L -20.1669,-399.083 L -17.7189,-402.669 L -17.6694,-402.745 L -17.6089,-402.845
 L -17.5374,-402.968 L -17.4549,-403.114 L -17.3771,-403.256 L -17.3194,-403.362 L -17.2821,-403.434 L -17.2649,-403.471
 L -17.2649,-398.449 z
M -17.4789,-345.23 L -16.8337,-345.367 L -16.2784,-345.596 L -15.8129,-345.916 L -15.445,-346.319 L -15.1822,-346.798
 L -15.0245,-347.352 L -14.9719,-347.981 L -15.0092,-348.422 L -15.1212,-348.825 L -15.3077,-349.188 L -15.5689,-349.512
 L -15.897,-349.785 L -16.2844,-349.998 L -16.731,-350.148 L -17.2369,-350.237 L -17.2369,-350.264 L -16.7779,-350.389
 L -16.3769,-350.559 L -16.0339,-350.775 L -15.7489,-351.037 L -15.5249,-351.344 L -15.3649,-351.694 L -15.2689,-352.086
 L -15.2369,-352.52 L -15.2867,-353.082 L -15.4362,-353.578 L -15.6852,-354.009 L -16.0339,-354.374 L -16.4721,-354.666
 L -16.9904,-354.874 L -17.5891,-354.999 L -18.2679,-355.04 L -18.896,-354.999 L -19.4642,-354.876 L -19.9725,-354.67
 L -20.4209,-354.382 L -20.7956,-354.022 L -21.0827,-353.596 L -21.2821,-353.107 L -21.3939,-352.552 L -20.1669,-352.457
 L -20.1004,-352.812 L -19.9817,-353.125 L -19.8109,-353.395 L -19.5879,-353.622 L -19.3192,-353.804 L -19.0119,-353.933
 L -18.6662,-354.011 L -18.2819,-354.036 L -17.8648,-354.009 L -17.5024,-353.926 L -17.1948,-353.788 L -16.9419,-353.594
 L -16.7446,-353.354 L -16.6037,-353.073 L -16.5191,-352.752 L -16.4909,-352.391 L -16.5255,-352.028 L -16.6292,-351.706
 L -16.802,-351.426 L -17.0439,-351.188 L -17.3486,-350.997 L -17.7094,-350.861 L -18.1266,-350.78 L -18.5999,-350.752
 L -19.2649,-350.752 L -19.2649,-349.695 L -18.5729,-349.695 L -18.0402,-349.667 L -17.5739,-349.584 L -17.1742,-349.445
 L -16.8409,-349.252 L -16.5784,-349.009 L -16.3909,-348.723 L -16.2784,-348.393 L -16.2409,-348.02 L -16.2738,-347.595
 L -16.3724,-347.226 L -16.5368,-346.912 L -16.7669,-346.655 L -17.0542,-346.453 L -17.3912,-346.31 L -17.7777,-346.223
 L -18.2139,-346.195 L -19.0333,-346.301 L -19.6534,-346.619 L -20.0743,-347.149 L -20.2959,-347.891 L -21.5569,-347.776
 L -21.4316,-347.174 L -21.2187,-346.65 L -20.9181,-346.205 L -20.5299,-345.839 L -20.0608,-345.552 L -19.5184,-345.348
 L -18.9028,-345.225 L -18.2139,-345.185 z
M -10.0395,-345.239 L -9.37296,-345.401 L -8.79346,-345.671 L -8.30096,-346.049 L -7.90765,-346.521 L -7.62671,-347.074
 L -7.45815,-347.707 L -7.40196,-348.421 L -7.45433,-349.051 L -7.61147,-349.62 L -7.87334,-350.125 L -8.23996,-350.568
 L -8.69434,-350.929 L -9.22046,-351.186 L -9.81833,-351.341 L -10.488,-351.392 L -11.0538,-351.354 L -11.5712,-351.24
 L -12.0403,-351.049 L -12.461,-350.782 L -12.278,-353.81 L -7.95796,-353.81 L -7.95796,-354.848 L -13.39,-354.848
 L -13.709,-349.711 L -12.515,-349.711 L -12.3015,-349.883 L -12.088,-350.029 L -11.8745,-350.148 L -11.661,-350.239
 L -11.4428,-350.308 L -11.2162,-350.356 L -10.9813,-350.386 L -10.738,-350.395 L -10.2878,-350.361 L -9.88646,-350.257
 L -9.53383,-350.084 L -9.22997,-349.843 L -8.98495,-349.545 L -8.80997,-349.204 L -8.70496,-348.82 L -8.66997,-348.394
 L -8.70471,-347.905 L -8.80896,-347.472 L -8.98271,-347.094 L -9.22597,-346.772 L -9.53072,-346.513 L -9.88896,-346.329
 L -10.3007,-346.218 L -10.766,-346.182 L -11.4901,-346.27 L -12.0627,-346.536 L -12.4836,-346.979 L -12.753,-347.6
 L -13.987,-347.458 L -13.8408,-346.937 L -13.6192,-346.482 L -13.3223,-346.092 L -12.95,-345.768 L -12.5073,-345.512
 L -12.0002,-345.33 L -11.4288,-345.221 L -10.793,-345.185 z
M -9.92421,-295.264 L -9.25096,-295.501 L -8.67821,-295.896 L -8.20596,-296.449 L -7.83672,-297.152 L -7.57297,-297.997
 L -7.41472,-298.984 L -7.36195,-300.112 L -7.41222,-301.258 L -7.56296,-302.253 L -7.81421,-303.1 L -8.16595,-303.796
 L -8.62277,-304.341 L -9.19022,-304.729 L -9.86827,-304.963 L -10.657,-305.04 L -11.4667,-304.964 L -12.16,-304.733
 L -12.7367,-304.348 L -13.197,-303.809 L -13.5483,-303.117 L -13.7992,-302.27 L -13.9498,-301.269 L -14,-300.112
 L -13.9483,-298.978 L -13.7932,-297.988 L -13.5348,-297.143 L -13.173,-296.442 L -12.7081,-295.892 L -12.1407,-295.499
 L -11.4706,-295.263 L -10.698,-295.185 z
M -11.1898,-296.241 L -11.6225,-296.418 L -11.9818,-296.713 L -12.268,-297.127 L -12.4858,-297.668 L -12.6415,-298.346
 L -12.7348,-299.161 L -12.766,-300.112 L -12.7353,-301.089 L -12.6432,-301.918 L -12.4898,-302.599 L -12.275,-303.132
 L -11.9893,-303.534 L -11.6245,-303.821 L -11.1803,-303.993 L -10.657,-304.05 L -10.1467,-303.992 L -9.71396,-303.817
 L -9.3587,-303.526 L -9.08096,-303.118 L -8.87184,-302.581 L -8.72246,-301.901 L -8.63284,-301.078 L -8.60297,-300.112
 L -8.63434,-299.178 L -8.72845,-298.372 L -8.88533,-297.695 L -9.10497,-297.148 L -9.39153,-296.725 L -9.75021,-296.423
 L -10.181,-296.242 L -10.684,-296.182 z
M -17.4789,-295.23 L -16.8337,-295.367 L -16.2784,-295.596 L -15.8129,-295.916 L -15.445,-296.319 L -15.1822,-296.798
 L -15.0245,-297.352 L -14.9719,-297.981 L -15.0092,-298.422 L -15.1212,-298.825 L -15.3077,-299.188 L -15.5689,-299.512
 L -15.897,-299.785 L -16.2844,-299.998 L -16.731,-300.148 L -17.2369,-300.237 L -17.2369,-300.264 L -16.7779,-300.389
 L -16.3769,-300.559 L -16.0339,-300.775 L -15.7489,-301.037 L -15.5249,-301.344 L -15.3649,-301.694 L -15.2689,-302.086
 L -15.2369,-302.52 L -15.2867,-303.082 L -15.4362,-303.578 L -15.6852,-304.009 L -16.0339,-304.374 L -16.4721,-304.666
 L -16.9904,-304.874 L -17.5891,-304.999 L -18.2679,-305.04 L -18.896,-304.999 L -19.4642,-304.876 L -19.9725,-304.67
 L -20.4209,-304.382 L -20.7956,-304.022 L -21.0827,-303.596 L -21.2821,-303.107 L -21.3939,-302.552 L -20.1669,-302.457
 L -20.1004,-302.812 L -19.9817,-303.125 L -19.8109,-303.395 L -19.5879,-303.622 L -19.3192,-303.804 L -19.0119,-303.933
 L -18.6662,-304.011 L -18.2819,-304.036 L -17.8648,-304.009 L -17.5024,-303.926 L -17.1948,-303.788 L -16.9419,-303.594
 L -16.7446,-303.354 L -16.6037,-303.073 L -16.5191,-302.752 L -16.4909,-302.391 L -16.5255,-302.028 L -16.6292,-301.706
 L -16.802,-301.426 L -17.0439,-301.188 L -17.3486,-300.997 L -17.7094,-300.861 L -18.1266,-300.78 L -18.5999,-300.752
 L -19.2649,-300.752 L -19.2649,-299.695 L -18.5729,-299.695 L -18.0402,-299.667 L -17.5739,-299.584 L -17.1742,-299.445
 L -16.8409,-299.252 L -16.5784,-299.009 L -16.3909,-298.723 L -16.2784,-298.393 L -16.2409,-298.02 L -16.2738,-297.595
 L -16.3724,-297.226 L -16.5368,-296.912 L -16.7669,-296.655 L -17.0542,-296.453 L -17.3912,-296.31 L -17.7777,-296.223
 L -18.2139,-296.195 L -19.0333,-296.301 L -19.6534,-296.619 L -20.0743,-297.149 L -20.2959,-297.891 L -21.5569,-297.776
 L -21.4316,-297.174 L -21.2187,-296.65 L -20.9181,-296.205 L -20.5299,-295.839 L -20.0608,-295.552 L -19.5184,-295.348
 L -18.9028,-295.225 L -18.2139,-295.185 z
M -15.0609,-246.351 L -20.0449,-246.351 L -19.9273,-246.591 L -19.7774,-246.836 L -19.5953,-247.086 L -19.3809,-247.341
 L -19.1301,-247.605 L -18.8394,-247.886 L -18.509,-248.182 L -18.1389,-248.495 L -17.4877,-249.035 L -16.9509,-249.499
 L -16.5287,-249.888 L -16.2209,-250.201 L -15.9854,-250.477 L -15.7809,-250.753 L -15.6074,-251.029 L -15.4649,-251.304
 L -15.3534,-251.58 L -15.2737,-251.857 L -15.2259,-252.135 L -15.2099,-252.413 L -15.2585,-253.007 L -15.4042,-253.529
 L -15.647,-253.979 L -15.9869,-254.356 L -16.4167,-254.656 L -16.9299,-254.869 L -17.5267,-254.998 L -18.2069,-255.04
 L -18.835,-254.998 L -19.4032,-254.871 L -19.9115,-254.659 L -20.3599,-254.362 L -20.7346,-253.994 L -21.0217,-253.567
 L -21.2211,-253.082 L -21.3329,-252.538 L -20.0859,-252.423 L -20.0159,-252.785 L -19.8937,-253.104 L -19.7194,-253.38
 L -19.4929,-253.612 L -19.2228,-253.798 L -18.9184,-253.93 L -18.5798,-254.01 L -18.2069,-254.036 L -17.8189,-254.009
 L -17.4759,-253.927 L -17.1779,-253.791 L -16.9249,-253.599 L -16.7232,-253.359 L -16.5792,-253.075 L -16.4927,-252.746
 L -16.4639,-252.372 L -16.4807,-252.088 L -16.5309,-251.818 L -16.6147,-251.564 L -16.7319,-251.324 L -16.8763,-251.096
 L -17.0414,-250.872 L -17.2273,-250.654 L -17.4339,-250.44 L -17.6575,-250.229 L -17.8942,-250.018 L -18.144,-249.808
 L -18.4069,-249.597 L -18.6771,-249.381 L -18.9487,-249.157 L -19.2216,-248.924 L -19.4959,-248.682 L -19.7673,-248.428
 L -20.0324,-248.16 L -20.2913,-247.877 L -20.5439,-247.58 L -20.7834,-247.263 L -21.0039,-246.924 L -21.2054,-246.561
 L -21.3879,-246.175 L -21.3879,-245.312 L -15.0609,-245.312 z
M -10.0395,-245.239 L -9.37296,-245.401 L -8.79346,-245.671 L -8.30096,-246.049 L -7.90765,-246.521 L -7.62671,-247.074
 L -7.45815,-247.707 L -7.40196,-248.421 L -7.45433,-249.051 L -7.61147,-249.62 L -7.87334,-250.125 L -8.23996,-250.568
 L -8.69434,-250.929 L -9.22046,-251.186 L -9.81833,-251.341 L -10.488,-251.392 L -11.0538,-251.354 L -11.5712,-251.24
 L -12.0403,-251.049 L -12.461,-250.782 L -12.278,-253.81 L -7.95796,-253.81 L -7.95796,-254.848 L -13.39,-254.848
 L -13.709,-249.711 L -12.515,-249.711 L -12.3015,-249.883 L -12.088,-250.029 L -11.8745,-250.148 L -11.661,-250.239
 L -11.4428,-250.308 L -11.2162,-250.356 L -10.9813,-250.386 L -10.738,-250.395 L -10.2878,-250.361 L -9.88646,-250.257
 L -9.53383,-250.084 L -9.22997,-249.843 L -8.98495,-249.545 L -8.80997,-249.204 L -8.70496,-248.82 L -8.66997,-248.394
 L -8.70471,-247.905 L -8.80896,-247.472 L -8.98271,-247.094 L -9.22597,-246.772 L -9.53072,-246.513 L -9.88896,-246.329
 L -10.3007,-246.218 L -10.766,-246.182 L -11.4901,-246.27 L -12.0627,-246.536 L -12.4836,-246.979 L -12.753,-247.6
 L -13.987,-247.458 L -13.8408,-246.937 L -13.6192,-246.482 L -13.3223,-246.092 L -12.95,-245.768 L -12.5073,-245.512
 L -12.0002,-245.33 L -11.4288,-245.221 L -10.793,-245.185 z
M -9.92421,-195.264 L -9.25096,-195.501 L -8.67821,-195.896 L -8.20596,-196.449 L -7.83672,-197.152 L -7.57297,-197.997
 L -7.41472,-198.984 L -7.36195,-200.112 L -7.41222,-201.258 L -7.56296,-202.253 L -7.81421,-203.1 L -8.16595,-203.796
 L -8.62277,-204.341 L -9.19022,-204.729 L -9.86827,-204.963 L -10.657,-205.04 L -11.4667,-204.964 L -12.16,-204.733
 L -12.7367,-204.348 L -13.197,-203.809 L -13.5483,-203.117 L -13.7992,-202.27 L -13.9498,-201.269 L -14,-200.112
 L -13.9483,-198.978 L -13.7932,-197.988 L -13.5348,-197.143 L -13.173,-196.442 L -12.7081,-195.892 L -12.1407,-195.499
 L -11.4706,-195.263 L -10.698,-195.185 z
M -11.1898,-196.241 L -11.6225,-196.418 L -11.9818,-196.713 L -12.268,-197.127 L -12.4858,-197.668 L -12.6415,-198.346
 L -12.7348,-199.161 L -12.766,-200.112 L -12.7353,-201.089 L -12.6432,-201.918 L -12.4898,-202.599 L -12.275,-203.132
 L -11.9893,-203.534 L -11.6245,-203.821 L -11.1803,-203.993 L -10.657,-204.05 L -10.1467,-203.992 L -9.71396,-203.817
 L -9.3587,-203.526 L -9.08096,-203.118 L -8.87184,-202.581 L -8.72246,-201.901 L -8.63284,-201.078 L -8.60297,-200.112
 L -8.63434,-199.178 L -8.72845,-198.372 L -8.88533,-197.695 L -9.10497,-197.148 L -9.39153,-196.725 L -9.75021,-196.423
 L -10.181,-196.242 L -10.684,-196.182 z
M -15.0609,-196.351 L -20.0449,-196.351 L -19.9273,-196.591 L -19.7774,-196.836 L -19.5953,-197.086 L -19.3809,-197.341
 L -19.1301,-197.605 L -18.8394,-197.886 L -18.509,-198.182 L -18.1389,-198.495 L -17.4877,-199.035 L -16.9509,-199.499
 L -16.5287,-199.888 L -16.2209,-200.201 L -15.9854,-200.477 L -15.7809,-200.753 L -15.6074,-201.029 L -15.4649,-201.304
 L -15.3534,-201.58 L -15.2737,-201.857 L -15.2259,-202.135 L -15.2099,-202.413 L -15.2585,-203.007 L -15.4042,-203.529
 L -15.647,-203.979 L -15.9869,-204.356 L -16.4167,-204.656 L -16.9299,-204.869 L -17.5267,-204.998 L -18.2069,-205.04
 L -18.835,-204.998 L -19.4032,-204.871 L -19.9115,-204.659 L -20.3599,-204.362 L -20.7346,-203.994 L -21.0217,-203.567
 L -21.2211,-203.082 L -21.3329,-202.538 L -20.0859,-202.423 L -20.0159,-202.785 L -19.8937,-203.104 L -19.7194,-203.38
 L -19.4929,-203.612 L -19.2228,-203.798 L -18.9184,-203.93 L -18.5798,-204.01 L -18.2069,-204.036 L -17.8189,-204.009
 L -17.4759,-203.927 L -17.1779,-203.791 L -16.9249,-203.599 L -16.7232,-203.359 L -16.5792,-203.075 L -16.4927,-202.746
 L -16.4639,-202.372 L -16.4807,-202.088 L -16.5309,-201.818 L -16.6147,-201.564 L -16.7319,-201.324 L -16.8763,-201.096
 L -17.0414,-200.872 L -17.2273,-200.654 L -17.4339,-200.44 L -17.6575,-200.229 L -17.8942,-200.018 L -18.144,-199.808
 L -18.4069,-199.597 L -18.6771,-199.381 L -18.9487,-199.157 L -19.2216,-198.924 L -19.4959,-198.682 L -19.7673,-198.428
 L -20.0324,-198.16 L -20.2913,-197.877 L -20.5439,-197.58 L -20.7834,-197.263 L -21.0039,-196.924 L -21.2054,-196.561
 L -21.3879,-196.175 L -21.3879,-195.312 L -15.0609,-195.312 z
M -15.0399,-146.444 L -17.3659,-146.444 L -17.3659,-154.942 L -18.4919,-154.942 L -20.7499,-153.407 L -20.7499,-152.254
 L -18.5939,-153.775 L -18.5939,-146.444 L -21.0279,-146.444 L -21.0279,-145.406 L -15.0399,-145.406 z
M -10.0395,-145.332 L -9.37296,-145.494 L -8.79346,-145.764 L -8.30096,-146.142 L -7.90765,-146.615 L -7.62671,-147.168
 L -7.45815,-147.801 L -7.40196,-148.514 L -7.45433,-149.145 L -7.61147,-149.713 L -7.87334,-150.219 L -8.23996,-150.662
 L -8.69434,-151.023 L -9.22046,-151.28 L -9.81833,-151.435 L -10.488,-151.486 L -11.0538,-151.448 L -11.5712,-151.334
 L -12.0403,-151.143 L -12.461,-150.876 L -12.278,-153.904 L -7.95796,-153.904 L -7.95796,-154.942 L -13.39,-154.942
 L -13.709,-149.804 L -12.515,-149.804 L -12.3015,-149.977 L -12.088,-150.123 L -11.8745,-150.242 L -11.661,-150.333
 L -11.4428,-150.401 L -11.2162,-150.45 L -10.9813,-150.479 L -10.738,-150.489 L -10.2878,-150.455 L -9.88646,-150.351
 L -9.53383,-150.178 L -9.22997,-149.936 L -8.98495,-149.638 L -8.80997,-149.298 L -8.70496,-148.914 L -8.66997,-148.487
 L -8.70471,-147.999 L -8.80896,-147.566 L -8.98271,-147.188 L -9.22597,-146.865 L -9.53072,-146.607 L -9.88896,-146.423
 L -10.3007,-146.312 L -10.766,-146.275 L -11.4901,-146.364 L -12.0627,-146.63 L -12.4836,-147.073 L -12.753,-147.693
 L -13.987,-147.551 L -13.8408,-147.031 L -13.6192,-146.576 L -13.3223,-146.186 L -12.95,-145.861 L -12.5073,-145.606
 L -12.0002,-145.424 L -11.4288,-145.315 L -10.793,-145.278 z
M -9.92421,-95.2635 L -9.25096,-95.5005 L -8.67821,-95.8955 L -8.20596,-96.4485 L -7.83672,-97.1519 L -7.57297,-97.997
 L -7.41472,-98.9839 L -7.36195,-100.112 L -7.41222,-101.258 L -7.56296,-102.253 L -7.81421,-103.1 L -8.16595,-103.796
 L -8.62277,-104.341 L -9.19022,-104.729 L -9.86827,-104.963 L -10.657,-105.04 L -11.4667,-104.964 L -12.16,-104.733
 L -12.7367,-104.348 L -13.197,-103.809 L -13.5483,-103.117 L -13.7992,-102.27 L -13.9498,-101.269 L -14,-100.112
 L -13.9483,-98.9782 L -13.7932,-97.9883 L -13.5348,-97.1427 L -13.173,-96.4415 L -12.7081,-95.8916 L -12.1407,-95.4988
 L -11.4706,-95.2631 L -10.698,-95.1845 z
M -11.1898,-96.2406 L -11.6225,-96.4178 L -11.9818,-96.7131 L -12.268,-97.1265 L -12.4858,-97.6679 L -12.6415,-98.346
 L -12.7348,-99.1609 L -12.766,-100.112 L -12.7353,-101.089 L -12.6432,-101.918 L -12.4898,-102.599 L -12.275,-103.132
 L -11.9893,-103.534 L -11.6245,-103.821 L -11.1803,-103.993 L -10.657,-104.05 L -10.1467,-103.992 L -9.71396,-103.817
 L -9.3587,-103.526 L -9.08096,-103.118 L -8.87184,-102.581 L -8.72246,-101.901 L -8.63284,-101.078 L -8.60297,-100.112
 L -8.63434,-99.1776 L -8.72845,-98.3718 L -8.88533,-97.6951 L -9.10497,-97.1475 L -9.39153,-96.7249 L -9.75021,-96.423
 L -10.181,-96.2419 L -10.684,-96.1815 z
M -15.0399,-96.3505 L -17.3659,-96.3505 L -17.3659,-104.848 L -18.4919,-104.848 L -20.7499,-103.313 L -20.7499,-102.16
 L -18.5939,-103.681 L -18.5939,-96.3505 L -21.0279,-96.3505 L -21.0279,-95.3125 L -15.0399,-95.3125 z
M -10.0395,-45.3323 L -9.37296,-45.4943 L -8.79346,-45.7643 L -8.30096,-46.1423 L -7.90765,-46.6149 L -7.62671,-47.1678
 L -7.45815,-47.8009 L -7.40196,-48.5143 L -7.45433,-49.145 L -7.61147,-49.7133 L -7.87334,-50.219 L -8.23996,-50.6622
 L -8.69434,-51.0227 L -9.22046,-51.2802 L -9.81833,-51.4347 L -10.488,-51.4862 L -11.0538,-51.4481 L -11.5712,-51.3337
 L -12.0403,-51.1431 L -12.461,-50.8762 L -12.278,-53.9042 L -7.95796,-53.9042 L -7.95796,-54.9422 L -13.39,-54.9422
 L -13.709,-49.8043 L -12.515,-49.8043 L -12.3015,-49.9772 L -12.088,-50.123 L -11.8745,-50.2417 L -11.661,-50.3332
 L -11.4428,-50.4015 L -11.2162,-50.4502 L -10.9813,-50.4795 L -10.738,-50.4892 L -10.2878,-50.4547 L -9.88646,-50.351
 L -9.53383,-50.1782 L -9.22997,-49.9363 L -8.98495,-49.6383 L -8.80997,-49.2975 L -8.70496,-48.9138 L -8.66997,-48.4873
 L -8.70471,-47.9989 L -8.80896,-47.5658 L -8.98271,-47.1879 L -9.22597,-46.8653 L -9.53072,-46.6071 L -9.88896,-46.4228
 L -10.3007,-46.3121 L -10.766,-46.2753 L -11.4901,-46.3639 L -12.0627,-46.6298 L -12.4836,-47.0729 L -12.753,-47.6933
 L -13.987,-47.5513 L -13.8408,-47.0309 L -13.6192,-46.5758 L -13.3223,-46.1859 L -12.95,-45.8613 L -12.5073,-45.6062
 L -12.0002,-45.424 L -11.4288,-45.3147 L -10.793,-45.2783 z
M -9.92421,4.7365 L -9.25096,4.4995 L -8.67821,4.10449 L -8.20596,3.5515 L -7.83672,2.84811 L -7.57297,2.00299
 L -7.41472,1.01611 L -7.36195,-0.112488 L -7.41222,-1.25774 L -7.56296,-2.25349 L -7.81421,-3.09975 L -8.16595,-3.79649
 L -8.62277,-4.34074 L -9.19022,-4.72949 L -9.86827,-4.96274 L -10.657,-5.0405 L -11.4667,-4.96356 L -12.16,-4.73274
 L -12.7367,-4.34805 L -13.197,-3.80949 L -13.5483,-3.11719 L -13.7992,-2.27025 L -13.9498,-1.26868 L -14,-0.112488
 L -13.9483,1.0218 L -13.7932,2.01175 L -13.5348,2.8573 L -13.173,3.55849 L -12.7081,4.10843 L -12.1407,4.50124
 L -11.4706,4.73692 L -10.698,4.81549 z
M -11.1898,3.75943 L -11.6225,3.58224 L -11.9818,3.28693 L -12.268,2.87349 L -12.4858,2.33212 L -12.6415,1.65399
 L -12.7348,0.839111 L -12.766,-0.112488 L -12.7353,-1.08949 L -12.6432,-1.91849 L -12.4898,-2.59949 L -12.275,-3.13249
 L -11.9893,-3.53412 L -11.6245,-3.821 L -11.1803,-3.99312 L -10.657,-4.05049 L -10.1467,-3.99225 L -9.71396,-3.81749
 L -9.3587,-3.52625 L -9.08096,-3.1185 L -8.87184,-2.58112 L -8.72246,-1.90099 L -8.63284,-1.07811 L -8.60297,-0.112488
 L -8.63434,0.822433 L -8.72845,1.62823 L -8.88533,2.30493 L -9.10497,2.85249 L -9.39153,3.27512 L -9.75021,3.577
 L -10.181,3.75812 L -10.684,3.8185 z
M 404.619,16.549 L 405.292,16.312 L 405.865,15.917 L 406.337,15.364 L 406.706,14.6606 L 406.97,13.8155
 L 407.128,12.8286 L 407.181,11.7 L 407.131,10.5547 L 406.98,9.55899 L 406.729,8.71274 L 406.377,8.01599
 L 405.92,7.47174 L 405.353,7.08299 L 404.675,6.84976 L 403.886,6.772 L 403.076,6.84894 L 402.383,7.07974
 L 401.806,7.46443 L 401.346,8.00299 L 400.995,8.69531 L 400.744,9.54224 L 400.593,10.5438 L 400.543,11.7
 L 400.595,12.8343 L 400.75,13.8242 L 401.008,14.6698 L 401.37,15.371 L 401.835,15.9209 L 402.402,16.3137
 L 403.072,16.5494 L 403.845,16.628 z
M 403.353,15.5719 L 402.92,15.3947 L 402.561,15.0994 L 402.275,14.686 L 402.057,14.1446 L 401.901,13.4665
 L 401.808,12.6516 L 401.777,11.7 L 401.808,10.723 L 401.9,9.894 L 402.053,9.213 L 402.268,8.67999
 L 402.554,8.27837 L 402.918,7.99149 L 403.363,7.81937 L 403.886,7.76199 L 404.396,7.82024 L 404.829,7.995
 L 405.184,8.28624 L 405.462,8.69398 L 405.671,9.23137 L 405.82,9.9115 L 405.91,10.7344 L 405.94,11.7
 L 405.909,12.6349 L 405.814,13.4407 L 405.658,14.1174 L 405.438,14.665 L 405.151,15.0876 L 404.793,15.3895
 L 404.362,15.5706 L 403.859,15.631 z
M 347.064,16.5823 L 347.709,16.4452 L 348.265,16.2168 L 348.73,15.897 L 349.098,15.4934 L 349.361,15.0147
 L 349.518,14.4609 L 349.571,13.832 L 349.534,13.3902 L 349.422,12.9877 L 349.235,12.6247 L 348.974,12.301
 L 348.646,12.0272 L 348.259,11.815 L 347.812,11.6642 L 347.306,11.575 L 347.306,11.548 L 347.765,11.4236
 L 348.166,11.2532 L 348.509,11.037 L 348.794,10.775 L 349.018,10.4682 L 349.178,10.1187 L 349.274,9.72668
 L 349.306,9.29199 L 349.256,8.73024 L 349.107,8.23399 L 348.858,7.80324 L 348.509,7.43799 L 348.071,7.14662
 L 347.553,6.93851 L 346.954,6.81363 L 346.275,6.772 L 345.647,6.81313 L 345.079,6.93651 L 344.57,7.14212
 L 344.122,7.42999 L 343.747,7.79074 L 343.46,8.21599 L 343.261,8.70575 L 343.149,9.25999 L 344.376,9.355
 L 344.443,9.00018 L 344.561,8.68774 L 344.732,8.41768 L 344.955,8.18999 L 345.224,8.00887 L 345.531,7.87949
 L 345.877,7.80186 L 346.261,7.77599 L 346.678,7.80362 L 347.041,7.88649 L 347.348,8.02461 L 347.601,8.21799
 L 347.798,8.45856 L 347.939,8.73924 L 348.024,9.06006 L 348.052,9.42099 L 348.017,9.78462 L 347.914,10.1065
 L 347.741,10.3866 L 347.499,10.625 L 347.194,10.8153 L 346.834,10.9512 L 346.416,11.0328 L 345.943,11.06
 L 345.278,11.06 L 345.278,12.118 L 345.97,12.118 L 346.503,12.1457 L 346.969,12.2287 L 347.369,12.3672
 L 347.702,12.561 L 347.965,12.8037 L 348.152,13.09 L 348.265,13.4197 L 348.302,13.793 L 348.269,14.2177
 L 348.171,14.5867 L 348.006,14.9002 L 347.776,15.158 L 347.489,15.3592 L 347.152,15.503 L 346.765,15.5892
 L 346.329,15.618 L 345.51,15.512 L 344.89,15.194 L 344.469,14.664 L 344.247,13.922 L 342.986,14.037
 L 343.111,14.6388 L 343.324,15.1622 L 343.625,15.6073 L 344.013,15.974 L 344.482,16.2601 L 345.025,16.4645
 L 345.64,16.5871 L 346.329,16.628 z
M 704.619,16.549 L 705.292,16.312 L 705.865,15.917 L 706.337,15.364 L 706.706,14.6606 L 706.97,13.8155
 L 707.128,12.8286 L 707.181,11.7 L 707.131,10.5547 L 706.98,9.55899 L 706.729,8.71274 L 706.377,8.01599
 L 705.92,7.47174 L 705.353,7.08299 L 704.675,6.84976 L 703.886,6.772 L 703.076,6.84894 L 702.383,7.07974
 L 701.806,7.46443 L 701.346,8.00299 L 700.995,8.69531 L 700.744,9.54224 L 700.593,10.5438 L 700.543,11.7
 L 700.595,12.8343 L 700.75,13.8242 L 701.008,14.6698 L 701.37,15.371 L 701.835,15.9209 L 702.402,16.3137
 L 703.072,16.5494 L 703.845,16.628 z
M 703.353,15.5719 L 702.92,15.3947 L 702.561,15.0994 L 702.275,14.686 L 702.057,14.1446 L 701.901,13.4665
 L 701.808,12.6516 L 701.777,11.7 L 701.808,10.723 L 701.9,9.894 L 702.053,9.213 L 702.268,8.67999
 L 702.554,8.27837 L 702.918,7.99149 L 703.363,7.81937 L 703.886,7.76199 L 704.396,7.82024 L 704.829,7.995
 L 705.184,8.28624 L 705.462,8.69398 L 705.671,9.23137 L 705.82,9.9115 L 705.91,10.7344 L 705.94,11.7
 L 705.909,12.6349 L 705.814,13.4407 L 705.658,14.1174 L 705.438,14.665 L 705.151,15.0876 L 704.793,15.3895
 L 704.362,15.5706 L 703.859,15.631 z
M 0.84726,16.549 L 1.52051,16.312 L 2.09326,15.917 L 2.56551,15.364 L 2.93475,14.6606 L 3.1985,13.8155
 L 3.35675,12.8286 L 3.40952,11.7 L 3.35925,10.5547 L 3.20851,9.55899 L 2.95726,8.71274 L 2.60551,8.01599
 L 2.1487,7.47174 L 1.58125,7.08299 L 0.903198,6.84976 L 0.114502,6.772 L -0.695221,6.84894 L -1.38847,7.07974
 L -1.96523,7.46443 L -2.42548,8.00299 L -2.77679,8.69531 L -3.02773,9.54224 L -3.17828,10.5438 L -3.22847,11.7
 L -3.17679,12.8343 L -3.02173,13.8242 L -2.76329,14.6698 L -2.40147,15.371 L -1.93666,15.9209 L -1.36923,16.3137
 L -0.699158,16.5494 L 0.0735016,16.628 z
M -0.41835,15.5719 L -0.850983,15.3947 L -1.21036,15.0994 L -1.49648,14.686 L -1.71436,14.1446 L -1.86998,13.4665
 L -1.96335,12.6516 L -1.99448,11.7 L -1.96379,10.723 L -1.87172,9.894 L -1.71829,9.213 L -1.50348,8.67999
 L -1.21785,8.27837 L -0.852982,7.99149 L -0.408859,7.81937 L 0.114502,7.76199 L 0.624756,7.82024 L 1.05751,7.995
 L 1.41277,8.28624 L 1.69051,8.69398 L 1.89963,9.23137 L 2.04901,9.9115 L 2.13863,10.7344 L 2.1685,11.7
 L 2.13713,12.6349 L 2.04301,13.4407 L 1.88614,14.1174 L 1.6665,14.665 L 1.37994,15.0876 L 1.02126,15.3895
 L 0.590439,15.5706 L 0.0875092,15.631 z
M 104.619,16.549 L 105.292,16.312 L 105.865,15.917 L 106.337,15.364 L 106.706,14.6606 L 106.97,13.8155
 L 107.128,12.8286 L 107.181,11.7 L 107.131,10.5547 L 106.98,9.55899 L 106.729,8.71274 L 106.377,8.01599
 L 105.92,7.47174 L 105.353,7.08299 L 104.675,6.84976 L 103.886,6.772 L 103.076,6.84894 L 102.383,7.07974
 L 101.806,7.46443 L 101.346,8.00299 L 100.995,8.69531 L 100.744,9.54224 L 100.593,10.5438 L 100.543,11.7
 L 100.595,12.8343 L 100.75,13.8242 L 101.008,14.6698 L 101.37,15.371 L 101.835,15.9209 L 102.402,16.3137
 L 103.072,16.5494 L 103.845,16.628 z
M 103.353,15.5719 L 102.92,15.3947 L 102.561,15.0994 L 102.275,14.686 L 102.057,14.1446 L 101.901,13.4665
 L 101.808,12.6516 L 101.777,11.7 L 101.808,10.723 L 101.9,9.894 L 102.053,9.213 L 102.268,8.67999
 L 102.554,8.27837 L 102.918,7.99149 L 103.363,7.81937 L 103.886,7.76199 L 104.396,7.82024 L 104.829,7.995
 L 105.184,8.28624 L 105.462,8.69398 L 105.671,9.23137 L 105.82,9.9115 L 105.91,10.7344 L 105.94,11.7
 L 105.909,12.6349 L 105.814,13.4407 L 105.658,14.1174 L 105.438,14.665 L 105.151,15.0876 L 104.793,15.3895
 L 104.362,15.5706 L 103.859,15.631 z
M 647.168,16.5731 L 647.774,16.4085 L 648.301,16.1341 L 648.75,15.75 L 649.109,15.2711 L 649.366,14.7122
 L 649.52,14.0735 L 649.571,13.355 L 649.522,12.6897 L 649.377,12.096 L 649.134,11.5737 L 648.794,11.123
 L 648.372,10.7594 L 647.881,10.4997 L 647.322,10.3439 L 646.695,10.292 L 646.316,10.3122 L 645.96,10.3727
 L 645.625,10.4737 L 645.312,10.615 L 645.027,10.7944 L 644.776,11.0107 L 644.559,11.2639 L 644.376,11.554
 L 644.412,10.686 L 644.519,9.92699 L 644.698,9.27699 L 644.949,8.73599 L 645.265,8.30986 L 645.64,8.00549
 L 646.074,7.82286 L 646.567,7.76199 L 647.121,7.83487 L 647.567,8.0535 L 647.907,8.41786 L 648.14,8.92799
 L 649.306,8.71799 L 648.925,7.86662 L 648.343,7.2585 L 647.562,6.89363 L 646.58,6.772 L 645.807,6.85532
 L 645.127,7.10524 L 644.542,7.5218 L 644.05,8.105 L 643.662,8.84319 L 643.384,9.72574 L 643.218,10.7527
 L 643.162,11.924 L 643.215,13.0046 L 643.376,13.9482 L 643.642,14.7551 L 644.016,15.425 L 644.491,15.9513
 L 645.061,16.3272 L 645.725,16.5528 L 646.485,16.628 z
M 646.037,15.6007 L 645.667,15.4677 L 645.336,15.2462 L 645.044,14.936 L 644.805,14.5564 L 644.635,14.1265
 L 644.532,13.6464 L 644.498,13.116 L 644.531,12.7001 L 644.629,12.3315 L 644.793,12.0101 L 645.023,11.736
 L 645.307,11.5168 L 645.631,11.3602 L 645.997,11.2663 L 646.404,11.235 L 646.833,11.2704 L 647.213,11.3765
 L 647.542,11.5534 L 647.821,11.801 L 648.044,12.1134 L 648.203,12.4855 L 648.298,12.9174 L 648.33,13.409
 L 648.299,13.9026 L 648.205,14.3405 L 648.048,14.7226 L 647.828,15.049 L 647.553,15.3097 L 647.231,15.496
 L 646.862,15.6077 L 646.445,15.645 z
M 304.619,16.549 L 305.292,16.312 L 305.865,15.917 L 306.337,15.364 L 306.706,14.6606 L 306.97,13.8155
 L 307.128,12.8286 L 307.181,11.7 L 307.131,10.5547 L 306.98,9.55899 L 306.729,8.71274 L 306.377,8.01599
 L 305.92,7.47174 L 305.353,7.08299 L 304.675,6.84976 L 303.886,6.772 L 303.076,6.84894 L 302.383,7.07974
 L 301.806,7.46443 L 301.346,8.00299 L 300.995,8.69531 L 300.744,9.54224 L 300.593,10.5438 L 300.543,11.7
 L 300.595,12.8343 L 300.75,13.8242 L 301.008,14.6698 L 301.37,15.371 L 301.835,15.9209 L 302.402,16.3137
 L 303.072,16.5494 L 303.845,16.628 z
M 303.353,15.5719 L 302.92,15.3947 L 302.561,15.0994 L 302.275,14.686 L 302.057,14.1446 L 301.901,13.4665
 L 301.808,12.6516 L 301.777,11.7 L 301.808,10.723 L 301.9,9.894 L 302.053,9.213 L 302.268,8.67999
 L 302.554,8.27837 L 302.918,7.99149 L 303.363,7.81937 L 303.886,7.76199 L 304.396,7.82024 L 304.829,7.995
 L 305.184,8.28624 L 305.462,8.69398 L 305.671,9.23137 L 305.82,9.9115 L 305.91,10.7344 L 305.94,11.7
 L 305.909,12.6349 L 305.814,13.4407 L 305.658,14.1174 L 305.438,14.665 L 305.151,15.0876 L 304.793,15.3895
 L 304.362,15.5706 L 303.859,15.631 z
M 604.619,16.549 L 605.292,16.312 L 605.865,15.917 L 606.337,15.364 L 606.706,14.6606 L 606.97,13.8155
 L 607.128,12.8286 L 607.181,11.7 L 607.131,10.5547 L 606.98,9.55899 L 606.729,8.71274 L 606.377,8.01599
 L 605.92,7.47174 L 605.353,7.08299 L 604.675,6.84976 L 603.886,6.772 L 603.076,6.84894 L 602.383,7.07974
 L 601.806,7.46443 L 601.346,8.00299 L 600.995,8.69531 L 600.744,9.54224 L 600.593,10.5438 L 600.543,11.7
 L 600.595,12.8343 L 600.75,13.8242 L 601.008,14.6698 L 601.37,15.371 L 601.835,15.9209 L 602.402,16.3137
 L 603.072,16.5494 L 603.845,16.628 z
M 603.353,15.5719 L 602.92,15.3947 L 602.561,15.0994 L 602.275,14.686 L 602.057,14.1446 L 601.901,13.4665
 L 601.808,12.6516 L 601.777,11.7 L 601.808,10.723 L 601.9,9.894 L 602.053,9.213 L 602.268,8.67999
 L 602.554,8.27837 L 602.918,7.99149 L 603.363,7.81937 L 603.886,7.76199 L 604.396,7.82024 L 604.829,7.995
 L 605.184,8.28624 L 605.462,8.69398 L 605.671,9.23137 L 605.82,9.9115 L 605.91,10.7344 L 605.94,11.7
 L 605.909,12.6349 L 605.814,13.4407 L 605.658,14.1174 L 605.438,14.665 L 605.151,15.0876 L 604.793,15.3895
 L 604.362,15.5706 L 603.859,15.631 z
M 597.168,16.5731 L 597.774,16.4085 L 598.301,16.1341 L 598.75,15.75 L 599.109,15.2711 L 599.366,14.7122
 L 599.52,14.0735 L 599.571,13.355 L 599.522,12.6897 L 599.377,12.096 L 599.134,11.5737 L 598.794,11.123
 L 598.372,10.7594 L 597.881,10.4997 L 597.322,10.3439 L 596.695,10.292 L 596.316,10.3122 L 595.96,10.3727
 L 595.625,10.4737 L 595.312,10.615 L 595.027,10.7944 L 594.776,11.0107 L 594.559,11.2639 L 594.376,11.554
 L 594.412,10.686 L 594.519,9.92699 L 594.698,9.27699 L 594.949,8.73599 L 595.265,8.30986 L 595.64,8.00549
 L 596.074,7.82286 L 596.567,7.76199 L 597.121,7.83487 L 597.567,8.0535 L 597.907,8.41786 L 598.14,8.92799
 L 599.306,8.71799 L 598.925,7.86662 L 598.343,7.2585 L 597.562,6.89363 L 596.58,6.772 L 595.807,6.85532
 L 595.127,7.10524 L 594.542,7.5218 L 594.05,8.105 L 593.662,8.84319 L 593.384,9.72574 L 593.218,10.7527
 L 593.162,11.924 L 593.215,13.0046 L 593.376,13.9482 L 593.642,14.7551 L 594.016,15.425 L 594.491,15.9513
 L 595.061,16.3272 L 595.725,16.5528 L 596.485,16.628 z
M 596.037,15.6007 L 595.667,15.4677 L 595.336,15.2462 L 595.044,14.936 L 594.805,14.5564 L 594.635,14.1265
 L 594.532,13.6464 L 594.498,13.116 L 594.531,12.7001 L 594.629,12.3315 L 594.793,12.0101 L 595.023,11.736
 L 595.307,11.5168 L 595.631,11.3602 L 595.997,11.2663 L 596.404,11.235 L 596.833,11.2704 L 597.213,11.3765
 L 597.542,11.5534 L 597.821,11.801 L 598.044,12.1134 L 598.203,12.4855 L 598.298,12.9174 L 598.33,13.409
 L 598.299,13.9026 L 598.205,14.3405 L 598.048,14.7226 L 597.828,15.049 L 597.553,15.3097 L 597.231,15.496
 L 596.862,15.6077 L 596.445,15.645 z
M 297.064,16.5823 L 297.709,16.4452 L 298.265,16.2168 L 298.73,15.897 L 299.098,15.4934 L 299.361,15.0147
 L 299.518,14.4609 L 299.571,13.832 L 299.534,13.3902 L 299.422,12.9877 L 299.235,12.6247 L 298.974,12.301
 L 298.646,12.0272 L 298.259,11.815 L 297.812,11.6642 L 297.306,11.575 L 297.306,11.548 L 297.765,11.4236
 L 298.166,11.2532 L 298.509,11.037 L 298.794,10.775 L 299.018,10.4682 L 299.178,10.1187 L 299.274,9.72668
 L 299.306,9.29199 L 299.256,8.73024 L 299.107,8.23399 L 298.858,7.80324 L 298.509,7.43799 L 298.071,7.14662
 L 297.553,6.93851 L 296.954,6.81363 L 296.275,6.772 L 295.647,6.81313 L 295.079,6.93651 L 294.57,7.14212
 L 294.122,7.42999 L 293.747,7.79074 L 293.46,8.21599 L 293.261,8.70575 L 293.149,9.25999 L 294.376,9.355
 L 294.443,9.00018 L 294.561,8.68774 L 294.732,8.41768 L 294.955,8.18999 L 295.224,8.00887 L 295.531,7.87949
 L 295.877,7.80186 L 296.261,7.77599 L 296.678,7.80362 L 297.041,7.88649 L 297.348,8.02461 L 297.601,8.21799
 L 297.798,8.45856 L 297.939,8.73924 L 298.024,9.06006 L 298.052,9.42099 L 298.017,9.78462 L 297.914,10.1065
 L 297.741,10.3866 L 297.499,10.625 L 297.194,10.8153 L 296.834,10.9512 L 296.416,11.0328 L 295.943,11.06
 L 295.278,11.06 L 295.278,12.118 L 295.97,12.118 L 296.503,12.1457 L 296.969,12.2287 L 297.369,12.3672
 L 297.702,12.561 L 297.965,12.8037 L 298.152,13.09 L 298.265,13.4197 L 298.302,13.793 L 298.269,14.2177
 L 298.171,14.5867 L 298.006,14.9002 L 297.776,15.158 L 297.489,15.3592 L 297.152,15.503 L 296.765,15.5892
 L 296.329,15.618 L 295.51,15.512 L 294.89,15.194 L 294.469,14.664 L 294.247,13.922 L 292.986,14.037
 L 293.111,14.6388 L 293.324,15.1622 L 293.625,15.6073 L 294.013,15.974 L 294.482,16.2601 L 295.025,16.4645
 L 295.64,16.5871 L 296.329,16.628 z
M 199.482,15.462 L 194.498,15.462 L 194.616,15.2216 L 194.766,14.9765 L 194.948,14.7266 L 195.162,14.472
 L 195.413,14.2071 L 195.704,13.9265 L 196.034,13.6301 L 196.404,13.318 L 197.055,12.7778 L 197.592,12.3132
 L 198.014,11.9243 L 198.322,11.611 L 198.558,11.3351 L 198.762,11.0592 L 198.936,10.7836 L 199.078,10.508
 L 199.19,10.2321 L 199.269,9.95525 L 199.317,9.67755 L 199.333,9.39899 L 199.284,8.80544 L 199.139,8.28374
 L 198.896,7.83392 L 198.556,7.45599 L 198.126,7.15674 L 197.613,6.94301 L 197.016,6.81476 L 196.336,6.772
 L 195.708,6.81438 L 195.14,6.94151 L 194.631,7.15337 L 194.183,7.45 L 193.808,7.81824 L 193.521,8.245
 L 193.322,8.73024 L 193.21,9.27399 L 194.457,9.38899 L 194.527,9.02744 L 194.649,8.70874 L 194.824,8.43292
 L 195.05,8.2 L 195.32,8.0145 L 195.625,7.88199 L 195.963,7.80249 L 196.336,7.77599 L 196.724,7.8033
 L 197.067,7.88524 L 197.365,8.0218 L 197.618,8.213 L 197.82,8.45319 L 197.964,8.73775 L 198.05,9.06668
 L 198.079,9.43999 L 198.062,9.72487 L 198.012,9.99449 L 197.928,10.2489 L 197.811,10.488 L 197.667,10.7165
 L 197.502,10.94 L 197.316,11.1585 L 197.109,11.372 L 196.885,11.583 L 196.649,11.794 L 196.399,12.005
 L 196.136,12.216 L 195.866,12.4314 L 195.594,12.6557 L 195.321,12.8889 L 195.047,13.131 L 194.776,13.3847
 L 194.511,13.653 L 194.252,13.9357 L 193.999,14.233 L 193.76,14.5492 L 193.539,14.8887 L 193.338,15.2517
 L 193.155,15.638 L 193.155,16.5 L 199.482,16.5 z
M 204.619,16.549 L 205.292,16.312 L 205.865,15.917 L 206.337,15.364 L 206.706,14.6606 L 206.97,13.8155
 L 207.128,12.8286 L 207.181,11.7 L 207.131,10.5547 L 206.98,9.55899 L 206.729,8.71274 L 206.377,8.01599
 L 205.92,7.47174 L 205.353,7.08299 L 204.675,6.84976 L 203.886,6.772 L 203.076,6.84894 L 202.383,7.07974
 L 201.806,7.46443 L 201.346,8.00299 L 200.995,8.69531 L 200.744,9.54224 L 200.593,10.5438 L 200.543,11.7
 L 200.595,12.8343 L 200.75,13.8242 L 201.008,14.6698 L 201.37,15.371 L 201.835,15.9209 L 202.402,16.3137
 L 203.072,16.5494 L 203.845,16.628 z
M 203.353,15.5719 L 202.92,15.3947 L 202.561,15.0994 L 202.275,14.686 L 202.057,14.1446 L 201.901,13.4665
 L 201.808,12.6516 L 201.777,11.7 L 201.808,10.723 L 201.9,9.894 L 202.053,9.213 L 202.268,8.67999
 L 202.554,8.27837 L 202.918,7.99149 L 203.363,7.81937 L 203.886,7.76199 L 204.396,7.82024 L 204.829,7.995
 L 205.184,8.28624 L 205.462,8.69398 L 205.671,9.23137 L 205.82,9.9115 L 205.91,10.7344 L 205.94,11.7
 L 205.909,12.6349 L 205.814,13.4407 L 205.658,14.1174 L 205.438,14.665 L 205.151,15.0876 L 204.793,15.3895
 L 204.362,15.5706 L 203.859,15.631 z
M 249.482,15.462 L 244.498,15.462 L 244.616,15.2216 L 244.766,14.9765 L 244.948,14.7266 L 245.162,14.472
 L 245.413,14.2071 L 245.704,13.9265 L 246.034,13.6301 L 246.404,13.318 L 247.055,12.7778 L 247.592,12.3132
 L 248.014,11.9243 L 248.322,11.611 L 248.558,11.3351 L 248.762,11.0592 L 248.936,10.7836 L 249.078,10.508
 L 249.19,10.2321 L 249.269,9.95525 L 249.317,9.67755 L 249.333,9.39899 L 249.284,8.80544 L 249.139,8.28374
 L 248.896,7.83392 L 248.556,7.45599 L 248.126,7.15674 L 247.613,6.94301 L 247.016,6.81476 L 246.336,6.772
 L 245.708,6.81438 L 245.14,6.94151 L 244.631,7.15337 L 244.183,7.45 L 243.808,7.81824 L 243.521,8.245
 L 243.322,8.73024 L 243.21,9.27399 L 244.457,9.38899 L 244.527,9.02744 L 244.649,8.70874 L 244.824,8.43292
 L 245.05,8.2 L 245.32,8.0145 L 245.625,7.88199 L 245.963,7.80249 L 246.336,7.77599 L 246.724,7.8033
 L 247.067,7.88524 L 247.365,8.0218 L 247.618,8.213 L 247.82,8.45319 L 247.964,8.73775 L 248.05,9.06668
 L 248.079,9.43999 L 248.062,9.72487 L 248.012,9.99449 L 247.928,10.2489 L 247.811,10.488 L 247.667,10.7165
 L 247.502,10.94 L 247.316,11.1585 L 247.109,11.372 L 246.885,11.583 L 246.649,11.794 L 246.399,12.005
 L 246.136,12.216 L 245.866,12.4314 L 245.594,12.6557 L 245.321,12.8889 L 245.047,13.131 L 244.776,13.3847
 L 244.511,13.653 L 244.252,13.9357 L 243.999,14.233 L 243.76,14.5492 L 243.539,14.8887 L 243.338,15.2517
 L 243.155,15.638 L 243.155,16.5 L 249.482,16.5 z
M 504.619,16.549 L 505.292,16.312 L 505.865,15.917 L 506.337,15.364 L 506.706,14.6606 L 506.97,13.8155
 L 507.128,12.8286 L 507.181,11.7 L 507.131,10.5547 L 506.98,9.55899 L 506.729,8.71274 L 506.377,8.01599
 L 505.92,7.47174 L 505.353,7.08299 L 504.675,6.84976 L 503.886,6.772 L 503.076,6.84894 L 502.383,7.07974
 L 501.806,7.46443 L 501.346,8.00299 L 500.995,8.69531 L 500.744,9.54224 L 500.593,10.5438 L 500.543,11.7
 L 500.595,12.8343 L 500.75,13.8242 L 501.008,14.6698 L 501.37,15.371 L 501.835,15.9209 L 502.402,16.3137
 L 503.072,16.5494 L 503.845,16.628 z
M 503.353,15.5719 L 502.92,15.3947 L 502.561,15.0994 L 502.275,14.686 L 502.057,14.1446 L 501.901,13.4665
 L 501.808,12.6516 L 501.777,11.7 L 501.808,10.723 L 501.9,9.894 L 502.053,9.213 L 502.268,8.67999
 L 502.554,8.27837 L 502.918,7.99149 L 503.363,7.81937 L 503.886,7.76199 L 504.396,7.82024 L 504.829,7.995
 L 505.184,8.28624 L 505.462,8.69398 L 505.671,9.23137 L 505.82,9.9115 L 505.91,10.7344 L 505.94,11.7
 L 505.909,12.6349 L 505.814,13.4407 L 505.658,14.1174 L 505.438,14.665 L 505.151,15.0876 L 504.793,15.3895
 L 504.362,15.5706 L 503.859,15.631 z
M 154.503,16.3865 L 155.17,16.2245 L 155.749,15.9545 L 156.242,15.5765 L 156.635,15.1039 L 156.916,14.551
 L 157.085,13.9179 L 157.141,13.2045 L 157.089,12.5737 L 156.931,12.0055 L 156.67,11.4997 L 156.303,11.0565
 L 155.849,10.696 L 155.322,10.4385 L 154.725,10.284 L 154.055,10.2325 L 153.489,10.2706 L 152.972,10.385
 L 152.503,10.5756 L 152.082,10.8425 L 152.265,7.8145 L 156.585,7.8145 L 156.585,6.7765 L 151.153,6.7765
 L 150.834,11.9145 L 152.028,11.9145 L 152.241,11.7416 L 152.455,11.5957 L 152.668,11.4771 L 152.882,11.3855
 L 153.1,11.3172 L 153.327,11.2685 L 153.562,11.2392 L 153.805,11.2295 L 154.255,11.2641 L 154.656,11.3677
 L 155.009,11.5406 L 155.313,11.7825 L 155.558,12.0804 L 155.733,12.4212 L 155.838,12.8049 L 155.873,13.2315
 L 155.838,13.7199 L 155.734,14.153 L 155.56,14.5309 L 155.317,14.8535 L 155.012,15.1116 L 154.654,15.296
 L 154.242,15.4066 L 153.777,15.4435 L 153.053,15.3549 L 152.48,15.089 L 152.059,14.6459 L 151.79,14.0255
 L 150.556,14.1675 L 150.702,14.6879 L 150.924,15.143 L 151.221,15.5329 L 151.593,15.8575 L 152.036,16.1125
 L 152.543,16.2947 L 153.114,16.4041 L 153.75,16.4405 z
M 149.503,15.2745 L 147.177,15.2745 L 147.177,6.7765 L 146.051,6.7765 L 143.793,8.31149 L 143.793,9.46449
 L 145.949,7.9435 L 145.949,15.2745 L 143.515,15.2745 L 143.515,16.3125 L 149.503,16.3125 z
M 448.431,14.1395 L 449.774,14.1395 L 449.774,13.1765 L 448.431,13.1765 L 448.431,6.7765 L 447.149,6.7765
 L 442.776,13.1935 L 442.776,14.1395 L 447.278,14.1395 L 447.278,16.3125 L 448.431,16.3125 z
M 443.901,13.1765 L 444.009,13.0415 L 444.376,12.5425 L 446.824,8.95549 L 446.874,8.87968 L 446.934,8.78024
 L 447.006,8.65718 L 447.088,8.5105 L 447.166,8.36931 L 447.224,8.26274 L 447.261,8.19081 L 447.278,8.15349
 L 447.278,13.1765 z
M 554.503,16.3865 L 555.17,16.2245 L 555.749,15.9545 L 556.242,15.5765 L 556.635,15.1039 L 556.916,14.551
 L 557.085,13.9179 L 557.141,13.2045 L 557.089,12.5737 L 556.931,12.0055 L 556.67,11.4997 L 556.303,11.0565
 L 555.849,10.696 L 555.322,10.4385 L 554.725,10.284 L 554.055,10.2325 L 553.489,10.2706 L 552.972,10.385
 L 552.503,10.5756 L 552.082,10.8425 L 552.265,7.8145 L 556.585,7.8145 L 556.585,6.7765 L 551.153,6.7765
 L 550.834,11.9145 L 552.028,11.9145 L 552.241,11.7416 L 552.455,11.5957 L 552.668,11.4771 L 552.882,11.3855
 L 553.1,11.3172 L 553.327,11.2685 L 553.562,11.2392 L 553.805,11.2295 L 554.255,11.2641 L 554.656,11.3677
 L 555.009,11.5406 L 555.313,11.7825 L 555.558,12.0804 L 555.733,12.4212 L 555.838,12.8049 L 555.873,13.2315
 L 555.838,13.7199 L 555.734,14.153 L 555.56,14.5309 L 555.317,14.8535 L 555.012,15.1116 L 554.654,15.296
 L 554.242,15.4066 L 553.777,15.4435 L 553.053,15.3549 L 552.48,15.089 L 552.059,14.6459 L 551.79,14.0255
 L 550.556,14.1675 L 550.702,14.6879 L 550.924,15.143 L 551.221,15.5329 L 551.593,15.8575 L 552.036,16.1125
 L 552.543,16.2947 L 553.114,16.4041 L 553.75,16.4405 z
M 50.732,16.3865 L 51.3985,16.2245 L 51.978,15.9545 L 52.4705,15.5765 L 52.8638,15.1039 L 53.1448,14.551
 L 53.3133,13.9179 L 53.3695,13.2045 L 53.3171,12.5737 L 53.16,12.0055 L 52.8981,11.4997 L 52.5315,11.0565
 L 52.0771,10.696 L 51.551,10.4385 L 50.9531,10.284 L 50.2835,10.2325 L 49.7177,10.2706 L 49.2003,10.385
 L 48.7312,10.5756 L 48.3105,10.8425 L 48.4935,7.8145 L 52.8135,7.8145 L 52.8135,6.7765 L 47.3815,6.7765
 L 47.0625,11.9145 L 48.2565,11.9145 L 48.47,11.7416 L 48.6835,11.5957 L 48.897,11.4771 L 49.1105,11.3855
 L 49.3287,11.3172 L 49.5553,11.2685 L 49.7902,11.2392 L 50.0335,11.2295 L 50.4836,11.2641 L 50.885,11.3677
 L 51.2376,11.5406 L 51.5415,11.7825 L 51.7865,12.0804 L 51.9615,12.4212 L 52.0665,12.8049 L 52.1015,13.2315
 L 52.0668,13.7199 L 51.9625,14.153 L 51.7888,14.5309 L 51.5455,14.8535 L 51.2408,15.1116 L 50.8825,15.296
 L 50.4708,15.4066 L 50.0055,15.4435 L 49.2813,15.3549 L 48.7088,15.089 L 48.2878,14.6459 L 48.0185,14.0255
 L 46.7845,14.1675 L 46.9307,14.6879 L 47.1523,15.143 L 47.4492,15.5329 L 47.8215,15.8575 L 48.2642,16.1125
 L 48.7713,16.2947 L 49.3427,16.4041 L 49.9785,16.4405 z
M 546.961,16.3865 L 547.627,16.2245 L 548.207,15.9545 L 548.699,15.5765 L 549.092,15.1039 L 549.373,14.551
 L 549.542,13.9179 L 549.598,13.2045 L 549.546,12.5737 L 549.389,12.0055 L 549.127,11.4997 L 548.76,11.0565
 L 548.306,10.696 L 547.78,10.4385 L 547.182,10.284 L 546.512,10.2325 L 545.946,10.2706 L 545.429,10.385
 L 544.96,10.5756 L 544.539,10.8425 L 544.722,7.8145 L 549.042,7.8145 L 549.042,6.7765 L 543.61,6.7765
 L 543.291,11.9145 L 544.485,11.9145 L 544.699,11.7416 L 544.912,11.5957 L 545.126,11.4771 L 545.339,11.3855
 L 545.557,11.3172 L 545.784,11.2685 L 546.019,11.2392 L 546.262,11.2295 L 546.712,11.2641 L 547.114,11.3677
 L 547.466,11.5406 L 547.77,11.7825 L 548.015,12.0804 L 548.19,12.4212 L 548.295,12.8049 L 548.33,13.2315
 L 548.295,13.7199 L 548.191,14.153 L 548.017,14.5309 L 547.774,14.8535 L 547.469,15.1116 L 547.111,15.296
 L 546.699,15.4066 L 546.234,15.4435 L 545.51,15.3549 L 544.937,15.089 L 544.516,14.6459 L 544.247,14.0255
 L 543.013,14.1675 L 543.159,14.6879 L 543.381,15.143 L 543.678,15.5329 L 544.05,15.8575 L 544.493,16.1125
 L 545,16.2947 L 545.571,16.4041 L 546.207,16.4405 z
M 454.503,16.3865 L 455.17,16.2245 L 455.749,15.9545 L 456.242,15.5765 L 456.635,15.1039 L 456.916,14.551
 L 457.085,13.9179 L 457.141,13.2045 L 457.089,12.5737 L 456.931,12.0055 L 456.67,11.4997 L 456.303,11.0565
 L 455.849,10.696 L 455.322,10.4385 L 454.725,10.284 L 454.055,10.2325 L 453.489,10.2706 L 452.972,10.385
 L 452.503,10.5756 L 452.082,10.8425 L 452.265,7.8145 L 456.585,7.8145 L 456.585,6.7765 L 451.153,6.7765
 L 450.834,11.9145 L 452.028,11.9145 L 452.241,11.7416 L 452.455,11.5957 L 452.668,11.4771 L 452.882,11.3855
 L 453.1,11.3172 L 453.327,11.2685 L 453.562,11.2392 L 453.805,11.2295 L 454.255,11.2641 L 454.656,11.3677
 L 455.009,11.5406 L 455.313,11.7825 L 455.558,12.0804 L 455.733,12.4212 L 455.838,12.8049 L 455.873,13.2315
 L 455.838,13.7199 L 455.734,14.153 L 455.56,14.5309 L 455.317,14.8535 L 455.012,15.1116 L 454.654,15.296
 L 454.242,15.4066 L 453.777,15.4435 L 453.053,15.3549 L 452.48,15.089 L 452.059,14.6459 L 451.79,14.0255
 L 450.556,14.1675 L 450.702,14.6879 L 450.924,15.143 L 451.221,15.5329 L 451.593,15.8575 L 452.036,16.1125
 L 452.543,16.2947 L 453.114,16.4041 L 453.75,16.4405 z
M 398.431,14.327 L 399.774,14.327 L 399.774,13.364 L 398.431,13.364 L 398.431,6.964 L 397.149,6.964
 L 392.776,13.381 L 392.776,14.327 L 397.278,14.327 L 397.278,16.5 L 398.431,16.5 z
M 393.901,13.364 L 394.009,13.229 L 394.376,12.73 L 396.824,9.14299 L 396.874,9.06718 L 396.934,8.96774
 L 397.006,8.84468 L 397.088,8.698 L 397.166,8.55681 L 397.224,8.45024 L 397.261,8.37831 L 397.278,8.34099
 L 397.278,13.364 z
M 496.961,16.574 L 497.627,16.412 L 498.207,16.142 L 498.699,15.764 L 499.092,15.2914 L 499.373,14.7385
 L 499.542,14.1054 L 499.598,13.392 L 499.546,12.7612 L 499.389,12.193 L 499.127,11.6872 L 498.76,11.244
 L 498.306,10.8835 L 497.78,10.626 L 497.182,10.4715 L 496.512,10.42 L 495.946,10.4581 L 495.429,10.5725
 L 494.96,10.7631 L 494.539,11.03 L 494.722,8.002 L 499.042,8.002 L 499.042,6.964 L 493.61,6.964
 L 493.291,12.102 L 494.485,12.102 L 494.699,11.9291 L 494.912,11.7832 L 495.126,11.6646 L 495.339,11.573
 L 495.557,11.5047 L 495.784,11.456 L 496.019,11.4267 L 496.262,11.417 L 496.712,11.4516 L 497.114,11.5552
 L 497.466,11.7281 L 497.77,11.97 L 498.015,12.2679 L 498.19,12.6087 L 498.295,12.9924 L 498.33,13.419
 L 498.295,13.9074 L 498.191,14.3405 L 498.017,14.7184 L 497.774,15.041 L 497.469,15.2991 L 497.111,15.4835
 L 496.699,15.5941 L 496.234,15.631 L 495.51,15.5424 L 494.937,15.2765 L 494.516,14.8334 L 494.247,14.213
 L 493.013,14.355 L 493.159,14.8754 L 493.381,15.3305 L 493.678,15.7204 L 494.05,16.045 L 494.493,16.3
 L 495,16.4822 L 495.571,16.5916 L 496.207,16.628 z
M 654.503,16.574 L 655.17,16.412 L 655.749,16.142 L 656.242,15.764 L 656.635,15.2914 L 656.916,14.7385
 L 657.085,14.1054 L 657.141,13.392 L 657.089,12.7612 L 656.931,12.193 L 656.67,11.6872 L 656.303,11.244
 L 655.849,10.8835 L 655.322,10.626 L 654.725,10.4715 L 654.055,10.42 L 653.489,10.4581 L 652.972,10.5725
 L 652.503,10.7631 L 652.082,11.03 L 652.265,8.002 L 656.585,8.002 L 656.585,6.964 L 651.153,6.964
 L 650.834,12.102 L 652.028,12.102 L 652.241,11.9291 L 652.455,11.7832 L 652.668,11.6646 L 652.882,11.573
 L 653.1,11.5047 L 653.327,11.456 L 653.562,11.4267 L 653.805,11.417 L 654.255,11.4516 L 654.656,11.5552
 L 655.009,11.7281 L 655.313,11.97 L 655.558,12.2679 L 655.733,12.6087 L 655.838,12.9924 L 655.873,13.419
 L 655.838,13.9074 L 655.734,14.3405 L 655.56,14.7184 L 655.317,15.041 L 655.012,15.2991 L 654.654,15.4835
 L 654.242,15.5941 L 653.777,15.631 L 653.053,15.5424 L 652.48,15.2765 L 652.059,14.8334 L 651.79,14.213
 L 650.556,14.355 L 650.702,14.8754 L 650.924,15.3305 L 651.221,15.7204 L 651.593,16.045 L 652.036,16.3
 L 652.543,16.4822 L 653.114,16.5916 L 653.75,16.628 z
M 254.503,16.574 L 255.17,16.412 L 255.749,16.142 L 256.242,15.764 L 256.635,15.2914 L 256.916,14.7385
 L 257.085,14.1054 L 257.141,13.392 L 257.089,12.7612 L 256.931,12.193 L 256.67,11.6872 L 256.303,11.244
 L 255.849,10.8835 L 255.322,10.626 L 254.725,10.4715 L 254.055,10.42 L 253.489,10.4581 L 252.972,10.5725
 L 252.503,10.7631 L 252.082,11.03 L 252.265,8.002 L 256.585,8.002 L 256.585,6.964 L 251.153,6.964
 L 250.834,12.102 L 252.028,12.102 L 252.241,11.9291 L 252.455,11.7832 L 252.668,11.6646 L 252.882,11.573
 L 253.1,11.5047 L 253.327,11.456 L 253.562,11.4267 L 253.805,11.417 L 254.255,11.4516 L 254.656,11.5552
 L 255.009,11.7281 L 255.313,11.97 L 255.558,12.2679 L 255.733,12.6087 L 255.838,12.9924 L 255.873,13.419
 L 255.838,13.9074 L 255.734,14.3405 L 255.56,14.7184 L 255.317,15.041 L 255.012,15.2991 L 254.654,15.4835
 L 254.242,15.5941 L 253.777,15.631 L 253.053,15.5424 L 252.48,15.2765 L 252.059,14.8334 L 251.79,14.213
 L 250.556,14.355 L 250.702,14.8754 L 250.924,15.3305 L 251.221,15.7204 L 251.593,16.045 L 252.036,16.3
 L 252.543,16.4822 L 253.114,16.5916 L 253.75,16.628 z
M 696.226,15.846 L 696.282,15.203 L 696.376,14.571 L 696.508,13.95 L 696.678,13.3319 L 696.885,12.7097
 L 697.13,12.0834 L 697.413,11.453 L 697.769,10.7596 L 698.232,9.94524 L 698.803,9.01006 L 699.482,7.95399
 L 699.482,6.964 L 693.169,6.964 L 693.169,8.002 L 698.302,8.002 L 697.459,9.27974 L 696.745,10.481
 L 696.162,11.6057 L 695.708,12.654 L 695.369,13.6515 L 695.126,14.625 L 694.981,15.5745 L 694.932,16.5
 L 696.207,16.5 z
M 99.503,15.462 L 97.177,15.462 L 97.177,6.964 L 96.051,6.964 L 93.793,8.49899 L 93.793,9.65199
 L 95.949,8.131 L 95.949,15.462 L 93.515,15.462 L 93.515,16.5 L 99.503,16.5 z
M 354.503,16.574 L 355.17,16.412 L 355.749,16.142 L 356.242,15.764 L 356.635,15.2914 L 356.916,14.7385
 L 357.085,14.1054 L 357.141,13.392 L 357.089,12.7612 L 356.931,12.193 L 356.67,11.6872 L 356.303,11.244
 L 355.849,10.8835 L 355.322,10.626 L 354.725,10.4715 L 354.055,10.42 L 353.489,10.4581 L 352.972,10.5725
 L 352.503,10.7631 L 352.082,11.03 L 352.265,8.002 L 356.585,8.002 L 356.585,6.964 L 351.153,6.964
 L 350.834,12.102 L 352.028,12.102 L 352.241,11.9291 L 352.455,11.7832 L 352.668,11.6646 L 352.882,11.573
 L 353.1,11.5047 L 353.327,11.456 L 353.562,11.4267 L 353.805,11.417 L 354.255,11.4516 L 354.656,11.5552
 L 355.009,11.7281 L 355.313,11.97 L 355.558,12.2679 L 355.733,12.6087 L 355.838,12.9924 L 355.873,13.419
 L 355.838,13.9074 L 355.734,14.3405 L 355.56,14.7184 L 355.317,15.041 L 355.012,15.2991 L 354.654,15.4835
 L 354.242,15.5941 L 353.777,15.631 L 353.053,15.5424 L 352.48,15.2765 L 352.059,14.8334 L 351.79,14.213
 L 350.556,14.355 L 350.702,14.8754 L 350.924,15.3305 L 351.221,15.7204 L 351.593,16.045 L 352.036,16.3
 L 352.543,16.4822 L 353.114,16.5916 L 353.75,16.628 z
" stroke="black" fill="lightgray" stroke-width="0.5"/>
</svg>
