<?xml version="1.0" standalone="no"?>
<!DOCTYPE svg PUBLIC "-//W3C//DTD SVG 1.1//EN" "http://www.w3.org/Graphics/SVG/1.1/DTD/svg11.dtd">
<svg width="180mm" height="223mm" viewBox="-22 -206 180 223" xmlns="http://www.w3.org/2000/svg" version="1.1">
<title>OpenSCAD Model</title>
<path d="
M -9.92421,-195.264 L -9.25096,-195.501 L -8.67821,-195.896 L -8.20596,-196.449 L -7.83672,-197.152 L -7.57297,-197.997
 L -7.41472,-198.984 L -7.36195,-200.112 L -7.41222,-201.258 L -7.56296,-202.253 L -7.81421,-203.1 L -8.16595,-203.796
 L -8.62277,-204.341 L -9.19022,-204.729 L -9.86827,-204.963 L -10.657,-205.04 L -11.4667,-204.964 L -12.16,-204.733
 L -12.7367,-204.348 L -13.197,-203.809 L -13.5483,-203.117 L -13.7992,-202.27 L -13.9498,-201.269 L -14,-200.112
 L -13.9483,-198.978 L -13.7932,-197.988 L -13.5348,-197.143 L -13.173,-196.442 L -12.7081,-195.892 L -12.1407,-195.499
 L -11.4706,-195.263 L -10.698,-195.185 z
M -11.1898,-196.241 L -11.6225,-196.418 L -11.9818,-196.713 L -12.268,-197.127 L -12.4858,-197.668 L -12.6415,-198.346
 L -12.7348,-199.161 L -12.766,-200.112 L -12.7353,-201.089 L -12.6432,-201.918 L -12.4898,-202.599 L -12.275,-203.132
 L -11.9893,-203.534 L -11.6245,-203.821 L -11.1803,-203.993 L -10.657,-204.05 L -10.1467,-203.992 L -9.71396,-203.817
 L -9.3587,-203.526 L -9.08096,-203.118 L -8.87184,-202.581 L -8.72246,-201.901 L -8.63284,-201.078 L -8.60297,-200.112
 L -8.63434,-199.178 L -8.72845,-198.372 L -8.88533,-197.695 L -9.10497,-197.148 L -9.39153,-196.725 L -9.75021,-196.423
 L -10.181,-196.242 L -10.684,-196.182 z
M -15.0609,-196.351 L -20.0449,-196.351 L -19.9273,-196.591 L -19.7774,-196.836 L -19.5953,-197.086 L -19.3809,-197.341
 L -19.1301,-197.605 L -18.8394,-197.886 L -18.509,-198.182 L -18.1389,-198.495 L -17.4877,-199.035 L -16.9509,-199.499
 L -16.5287,-199.888 L -16.2209,-200.201 L -15.9854,-200.477 L -15.7809,-200.753 L -15.6074,-201.029 L -15.4649,-201.304
 L -15.3534,-201.58 L -15.2737,-201.857 L -15.2259,-202.135 L -15.2099,-202.413 L -15.2585,-203.007 L -15.4042,-203.529
 L -15.647,-203.979 L -15.9869,-204.356 L -16.4167,-204.656 L -16.9299,-204.869 L -17.5267,-204.998 L -18.2069,-205.04
 L -18.835,-204.998 L -19.4032,-204.871 L -19.9115,-204.659 L -20.3599,-204.362 L -20.7346,-203.994 L -21.0217,-203.567
 L -21.2211,-203.082 L -21.3329,-202.538 L -20.0859,-202.423 L -20.0159,-202.785 L -19.8937,-203.104 L -19.7194,-203.38
 L -19.4929,-203.612 L -19.2228,-203.798 L -18.9184,-203.93 L -18.5798,-204.01 L -18.2069,-204.036 L -17.8189,-204.009
 L -17.4759,-203.927 L -17.1779,-203.791 L -16.9249,-203.599 L -16.7232,-203.359 L -16.5792,-203.075 L -16.4927,-202.746
 L -16.4639,-202.372 L -16.4807,-202.088 L -16.5309,-201.818 L -16.6147,-201.564 L -16.7319,-201.324 L -16.8763,-201.096
 L -17.0414,-200.872 L -17.2273,-200.654 L -17.4339,-200.44 L -17.6575,-200.229 L -17.8942,-200.018 L -18.144,-199.808
 L -18.4069,-199.597 L -18.6771,-199.381 L -18.9487,-199.157 L -19.2216,-198.924 L -19.4959,-198.682 L -19.7673,-198.428
 L -20.0324,-198.16 L -20.2913,-197.877 L -20.5439,-197.58 L -20.7834,-197.263 L -21.0039,-196.924 L -21.2054,-196.561
 L -21.3879,-196.175 L -21.3879,-195.312 L -15.0609,-195.312 z
M -5,-200 L 10,-200 L 10,-190.8 L 0.799988,-190.8 L 0.799988,-200 L 0,-200
 L 0,-150.8 L -5,-150.8 L -5,-150 L 0,-150 L 0,-100.8 L -5,-100.8
 L -5,-100 L 0,-100 L 0,-50.8 L -5,-50.8 L -5,-50 L 0,-50
 L 0,-0.799988 L -5,-0.799988 L -5,-0 L 0,-0 L 0,5 L 0.799988,5
 L 0.799988,-0 L 100,-0 L 100,5 L 100.8,5 L 100.8,-0 L 150,-0
 L 150,5 L 150.8,5 L 150.8,-200 L 150,-200 L 150,-190.8 L 140.8,-190.8
 L 140.8,-200 L 150,-200 L 150,-200.8 L -5,-200.8 z
M 0.799988,-180.8 L 0.799988,-190 L 10,-190 L 10,-180.8 z
M 10.8,-180.8 L 10.8,-190 L 20,-190 L 20,-180.8 z
M 20.8,-180.8 L 20.8,-190 L 30,-190 L 30,-180.8 z
M 30.8,-180.8 L 30.8,-190 L 40,-190 L 40,-180.8 z
M 40.8,-180.8 L 40.8,-190 L 50,-190 L 50,-180.8 z
M 50.8,-180.8 L 50.8,-190 L 60,-190 L 60,-180.8 z
M 60.8,-180.8 L 60.8,-190 L 70,-190 L 70,-180.8 z
M 70.8,-180.8 L 70.8,-190 L 80,-190 L 80,-180.8 z
M 80.8,-180.8 L 80.8,-190 L 90,-190 L 90,-180.8 z
M 90.8,-180.8 L 90.8,-190 L 100,-190 L 100,-180.8 z
M 100.8,-180.8 L 100.8,-190 L 110,-190 L 110,-180.8 z
M 110.8,-180.8 L 110.8,-190 L 120,-190 L 120,-180.8 z
M 120.8,-180.8 L 120.8,-190 L 130,-190 L 130,-180.8 z
M 130.8,-180.8 L 130.8,-190 L 140,-190 L 140,-180.8 z
M 140.8,-180.8 L 140.8,-190 L 150,-190 L 150,-180.8 z
M 0.799988,-170.8 L 0.799988,-180 L 10,-180 L 10,-170.8 z
M 10.8,-170.8 L 10.8,-180 L 20,-180 L 20,-170.8 z
M 20.8,-170.8 L 20.8,-180 L 30,-180 L 30,-170.8 z
M 30.8,-170.8 L 30.8,-180 L 40,-180 L 40,-170.8 z
M 40.8,-170.8 L 40.8,-180 L 50,-180 L 50,-170.8 z
M 50.8,-170.8 L 50.8,-180 L 60,-180 L 60,-170.8 z
M 60.8,-170.8 L 60.8,-180 L 70,-180 L 70,-170.8 z
M 70.8,-170.8 L 70.8,-180 L 80,-180 L 80,-170.8 z
M 80.8,-170.8 L 80.8,-180 L 90,-180 L 90,-170.8 z
M 90.8,-170.8 L 90.8,-180 L 100,-180 L 100,-170.8 z
M 100.8,-170.8 L 100.8,-180 L 110,-180 L 110,-170.8 z
M 110.8,-170.8 L 110.8,-180 L 120,-180 L 120,-170.8 z
M 120.8,-170.8 L 120.8,-180 L 130,-180 L 130,-170.8 z
M 130.8,-170.8 L 130.8,-180 L 140,-180 L 140,-170.8 z
M 140.8,-170.8 L 140.8,-180 L 150,-180 L 150,-170.8 z
M 0.799988,-160.8 L 0.799988,-170 L 10,-170 L 10,-160.8 z
M 10.8,-160.8 L 10.8,-170 L 20,-170 L 20,-160.8 z
M 20.8,-160.8 L 20.8,-170 L 30,-170 L 30,-160.8 z
M 30.8,-160.8 L 30.8,-170 L 40,-170 L 40,-160.8 z
M 40.8,-160.8 L 40.8,-170 L 50,-170 L 50,-160.8 z
M 50.8,-160.8 L 50.8,-170 L 60,-170 L 60,-160.8 z
M 60.8,-160.8 L 60.8,-170 L 70,-170 L 70,-160.8 z
M 70.8,-160.8 L 70.8,-170 L 80,-170 L 80,-160.8 z
M 80.8,-160.8 L 80.8,-170 L 90,-170 L 90,-160.8 z
M 90.8,-160.8 L 90.8,-170 L 100,-170 L 100,-160.8 z
M 100.8,-160.8 L 100.8,-170 L 110,-170 L 110,-160.8 z
M 110.8,-160.8 L 110.8,-170 L 120,-170 L 120,-160.8 z
M 120.8,-160.8 L 120.8,-170 L 130,-170 L 130,-160.8 z
M 130.8,-160.8 L 130.8,-170 L 140,-170 L 140,-160.8 z
M 140.8,-160.8 L 140.8,-170 L 150,-170 L 150,-160.8 z
M 0.799988,-150.8 L 0.799988,-160 L 10,-160 L 10,-150.8 z
M 10.8,-150.8 L 10.8,-160 L 20,-160 L 20,-150.8 z
M 20.8,-150.8 L 20.8,-160 L 30,-160 L 30,-150.8 z
M 30.8,-150.8 L 30.8,-160 L 40,-160 L 40,-150.8 z
M 40.8,-150.8 L 40.8,-160 L 50,-160 L 50,-150.8 z
M 50.8,-150.8 L 50.8,-160 L 60,-160 L 60,-150.8 z
M 60.8,-150.8 L 60.8,-160 L 70,-160 L 70,-150.8 z
M 70.8,-150.8 L 70.8,-160 L 80,-160 L 80,-150.8 z
M 80.8,-150.8 L 80.8,-160 L 90,-160 L 90,-150.8 z
M 90.8,-150.8 L 90.8,-160 L 100,-160 L 100,-150.8 z
M 100.8,-150.8 L 100.8,-160 L 110,-160 L 110,-150.8 z
M 110.8,-150.8 L 110.8,-160 L 120,-160 L 120,-150.8 z
M 120.8,-150.8 L 120.8,-160 L 130,-160 L 130,-150.8 z
M 130.8,-150.8 L 130.8,-160 L 140,-160 L 140,-150.8 z
M 140.8,-150.8 L 140.8,-160 L 150,-160 L 150,-150.8 z
M 0.799988,-140.8 L 0.799988,-150 L 10,-150 L 10,-140.8 z
M 10.8,-140.8 L 10.8,-150 L 20,-150 L 20,-140.8 z
M 20.8,-140.8 L 20.8,-150 L 30,-150 L 30,-140.8 z
M 30.8,-140.8 L 30.8,-150 L 40,-150 L 40,-140.8 z
M 40.8,-140.8 L 40.8,-150 L 50,-150 L 50,-140.8 z
M 50.8,-140.8 L 50.8,-150 L 60,-150 L 60,-140.8 z
M 60.8,-140.8 L 60.8,-150 L 70,-150 L 70,-140.8 z
M 70.8,-140.8 L 70.8,-150 L 80,-150 L 80,-140.8 z
M 80.8,-140.8 L 80.8,-150 L 90,-150 L 90,-140.8 z
M 90.8,-140.8 L 90.8,-150 L 100,-150 L 100,-140.8 z
M 100.8,-140.8 L 100.8,-150 L 110,-150 L 110,-140.8 z
M 110.8,-140.8 L 110.8,-150 L 120,-150 L 120,-140.8 z
M 120.8,-140.8 L 120.8,-150 L 130,-150 L 130,-140.8 z
M 130.8,-140.8 L 130.8,-150 L 140,-150 L 140,-140.8 z
M 140.8,-140.8 L 140.8,-150 L 150,-150 L 150,-140.8 z
M 0.799988,-130.8 L 0.799988,-140 L 10,-140 L 10,-130.8 z
M 10.8,-130.8 L 10.8,-140 L 20,-140 L 20,-130.8 z
M 20.8,-130.8 L 20.8,-140 L 30,-140 L 30,-130.8 z
M 30.8,-130.8 L 30.8,-140 L 40,-140 L 40,-130.8 z
M 40.8,-130.8 L 40.8,-140 L 50,-140 L 50,-130.8 z
M 50.8,-130.8 L 50.8,-140 L 60,-140 L 60,-130.8 z
M 60.8,-130.8 L 60.8,-140 L 70,-140 L 70,-130.8 z
M 70.8,-130.8 L 70.8,-140 L 80,-140 L 80,-130.8 z
M 80.8,-130.8 L 80.8,-140 L 90,-140 L 90,-130.8 z
M 90.8,-130.8 L 90.8,-140 L 100,-140 L 100,-130.8 z
M 100.8,-130.8 L 100.8,-140 L 110,-140 L 110,-130.8 z
M 110.8,-130.8 L 110.8,-140 L 120,-140 L 120,-130.8 z
M 120.8,-130.8 L 120.8,-140 L 130,-140 L 130,-130.8 z
M 130.8,-130.8 L 130.8,-140 L 140,-140 L 140,-130.8 z
M 140.8,-130.8 L 140.8,-140 L 150,-140 L 150,-130.8 z
M 0.799988,-120.8 L 0.799988,-130 L 10,-130 L 10,-120.8 z
M 10.8,-120.8 L 10.8,-130 L 20,-130 L 20,-120.8 z
M 20.8,-120.8 L 20.8,-130 L 30,-130 L 30,-120.8 z
M 30.8,-120.8 L 30.8,-130 L 40,-130 L 40,-120.8 z
M 40.8,-120.8 L 40.8,-130 L 50,-130 L 50,-120.8 z
M 50.8,-120.8 L 50.8,-130 L 60,-130 L 60,-120.8 z
M 60.8,-120.8 L 60.8,-130 L 70,-130 L 70,-120.8 z
M 70.8,-120.8 L 70.8,-130 L 80,-130 L 80,-120.8 z
M 80.8,-120.8 L 80.8,-130 L 90,-130 L 90,-120.8 z
M 90.8,-120.8 L 90.8,-130 L 100,-130 L 100,-120.8 z
M 100.8,-120.8 L 100.8,-130 L 110,-130 L 110,-120.8 z
M 110.8,-120.8 L 110.8,-130 L 120,-130 L 120,-120.8 z
M 120.8,-120.8 L 120.8,-130 L 130,-130 L 130,-120.8 z
M 130.8,-120.8 L 130.8,-130 L 140,-130 L 140,-120.8 z
M 140.8,-120.8 L 140.8,-130 L 150,-130 L 150,-120.8 z
M 0.799988,-110.8 L 0.799988,-120 L 10,-120 L 10,-110.8 z
M 10.8,-110.8 L 10.8,-120 L 20,-120 L 20,-110.8 z
M 20.8,-110.8 L 20.8,-120 L 30,-120 L 30,-110.8 z
M 30.8,-110.8 L 30.8,-120 L 40,-120 L 40,-110.8 z
M 40.8,-110.8 L 40.8,-120 L 50,-120 L 50,-110.8 z
M 50.8,-110.8 L 50.8,-120 L 60,-120 L 60,-110.8 z
M 60.8,-110.8 L 60.8,-120 L 70,-120 L 70,-110.8 z
M 70.8,-110.8 L 70.8,-120 L 80,-120 L 80,-110.8 z
M 80.8,-110.8 L 80.8,-120 L 90,-120 L 90,-110.8 z
M 90.8,-110.8 L 90.8,-120 L 100,-120 L 100,-110.8 z
M 100.8,-110.8 L 100.8,-120 L 110,-120 L 110,-110.8 z
M 110.8,-110.8 L 110.8,-120 L 120,-120 L 120,-110.8 z
M 120.8,-110.8 L 120.8,-120 L 130,-120 L 130,-110.8 z
M 130.8,-110.8 L 130.8,-120 L 140,-120 L 140,-110.8 z
M 140.8,-110.8 L 140.8,-120 L 150,-120 L 150,-110.8 z
M 0.799988,-100.8 L 0.799988,-110 L 10,-110 L 10,-100.8 z
M 10.8,-100.8 L 10.8,-110 L 20,-110 L 20,-100.8 z
M 20.8,-100.8 L 20.8,-110 L 30,-110 L 30,-100.8 z
M 30.8,-100.8 L 30.8,-110 L 40,-110 L 40,-100.8 z
M 40.8,-100.8 L 40.8,-110 L 50,-110 L 50,-100.8 z
M 50.8,-100.8 L 50.8,-110 L 60,-110 L 60,-100.8 z
M 60.8,-100.8 L 60.8,-110 L 70,-110 L 70,-100.8 z
M 70.8,-100.8 L 70.8,-110 L 80,-110 L 80,-100.8 z
M 80.8,-100.8 L 80.8,-110 L 90,-110 L 90,-100.8 z
M 90.8,-100.8 L 90.8,-110 L 100,-110 L 100,-100.8 z
M 100.8,-100.8 L 100.8,-110 L 110,-110 L 110,-100.8 z
M 110.8,-100.8 L 110.8,-110 L 120,-110 L 120,-100.8 z
M 120.8,-100.8 L 120.8,-110 L 130,-110 L 130,-100.8 z
M 130.8,-100.8 L 130.8,-110 L 140,-110 L 140,-100.8 z
M 140.8,-100.8 L 140.8,-110 L 150,-110 L 150,-100.8 z
M 0.799988,-90.8 L 0.799988,-100 L 10,-100 L 10,-90.8 z
M 10.8,-90.8 L 10.8,-100 L 20,-100 L 20,-90.8 z
M 20.8,-90.8 L 20.8,-100 L 30,-100 L 30,-90.8 z
M 30.8,-90.8 L 30.8,-100 L 40,-100 L 40,-90.8 z
M 40.8,-90.8 L 40.8,-100 L 50,-100 L 50,-90.8 z
M 50.8,-90.8 L 50.8,-100 L 60,-100 L 60,-90.8 z
M 60.8,-90.8 L 60.8,-100 L 70,-100 L 70,-90.8 z
M 70.8,-90.8 L 70.8,-100 L 80,-100 L 80,-90.8 z
M 80.8,-90.8 L 80.8,-100 L 90,-100 L 90,-90.8 z
M 90.8,-90.8 L 90.8,-100 L 100,-100 L 100,-90.8 z
M 100.8,-90.8 L 100.8,-100 L 110,-100 L 110,-90.8 z
M 110.8,-90.8 L 110.8,-100 L 120,-100 L 120,-90.8 z
M 120.8,-90.8 L 120.8,-100 L 130,-100 L 130,-90.8 z
M 130.8,-90.8 L 130.8,-100 L 140,-100 L 140,-90.8 z
M 140.8,-90.8 L 140.8,-100 L 150,-100 L 150,-90.8 z
M 0.799988,-80.8 L 0.799988,-90 L 10,-90 L 10,-80.8 z
M 10.8,-80.8 L 10.8,-90 L 20,-90 L 20,-80.8 z
M 20.8,-80.8 L 20.8,-90 L 30,-90 L 30,-80.8 z
M 30.8,-80.8 L 30.8,-90 L 40,-90 L 40,-80.8 z
M 40.8,-80.8 L 40.8,-90 L 50,-90 L 50,-80.8 z
M 50.8,-80.8 L 50.8,-90 L 60,-90 L 60,-80.8 z
M 60.8,-80.8 L 60.8,-90 L 70,-90 L 70,-80.8 z
M 70.8,-80.8 L 70.8,-90 L 80,-90 L 80,-80.8 z
M 80.8,-80.8 L 80.8,-90 L 90,-90 L 90,-80.8 z
M 90.8,-80.8 L 90.8,-90 L 100,-90 L 100,-80.8 z
M 100.8,-80.8 L 100.8,-90 L 110,-90 L 110,-80.8 z
M 110.8,-80.8 L 110.8,-90 L 120,-90 L 120,-80.8 z
M 120.8,-80.8 L 120.8,-90 L 130,-90 L 130,-80.8 z
M 130.8,-80.8 L 130.8,-90 L 140,-90 L 140,-80.8 z
M 140.8,-80.8 L 140.8,-90 L 150,-90 L 150,-80.8 z
M 0.799988,-70.8 L 0.799988,-80 L 10,-80 L 10,-70.8 z
M 10.8,-70.8 L 10.8,-80 L 20,-80 L 20,-70.8 z
M 20.8,-70.8 L 20.8,-80 L 30,-80 L 30,-70.8 z
M 30.8,-70.8 L 30.8,-80 L 40,-80 L 40,-70.8 z
M 40.8,-70.8 L 40.8,-80 L 50,-80 L 50,-70.8 z
M 50.8,-70.8 L 50.8,-80 L 60,-80 L 60,-70.8 z
M 60.8,-70.8 L 60.8,-80 L 70,-80 L 70,-70.8 z
M 70.8,-70.8 L 70.8,-80 L 80,-80 L 80,-70.8 z
M 80.8,-70.8 L 80.8,-80 L 90,-80 L 90,-70.8 z
M 90.8,-70.8 L 90.8,-80 L 100,-80 L 100,-70.8 z
M 100.8,-70.8 L 100.8,-80 L 110,-80 L 110,-70.8 z
M 110.8,-70.8 L 110.8,-80 L 120,-80 L 120,-70.8 z
M 120.8,-70.8 L 120.8,-80 L 130,-80 L 130,-70.8 z
M 130.8,-70.8 L 130.8,-80 L 140,-80 L 140,-70.8 z
M 140.8,-70.8 L 140.8,-80 L 150,-80 L 150,-70.8 z
M 0.799988,-60.8 L 0.799988,-70 L 10,-70 L 10,-60.8 z
M 10.8,-60.8 L 10.8,-70 L 20,-70 L 20,-60.8 z
M 20.8,-60.8 L 20.8,-70 L 30,-70 L 30,-60.8 z
M 30.8,-60.8 L 30.8,-70 L 40,-70 L 40,-60.8 z
M 40.8,-60.8 L 40.8,-70 L 50,-70 L 50,-60.8 z
M 50.8,-60.8 L 50.8,-70 L 60,-70 L 60,-60.8 z
M 60.8,-60.8 L 60.8,-70 L 70,-70 L 70,-60.8 z
M 70.8,-60.8 L 70.8,-70 L 80,-70 L 80,-60.8 z
M 80.8,-60.8 L 80.8,-70 L 90,-70 L 90,-60.8 z
M 90.8,-60.8 L 90.8,-70 L 100,-70 L 100,-60.8 z
M 100.8,-60.8 L 100.8,-70 L 110,-70 L 110,-60.8 z
M 110.8,-60.8 L 110.8,-70 L 120,-70 L 120,-60.8 z
M 120.8,-60.8 L 120.8,-70 L 130,-70 L 130,-60.8 z
M 130.8,-60.8 L 130.8,-70 L 140,-70 L 140,-60.8 z
M 140.8,-60.8 L 140.8,-70 L 150,-70 L 150,-60.8 z
M 0.799988,-50.8 L 0.799988,-60 L 10,-60 L 10,-50.8 z
M 10.8,-50.8 L 10.8,-60 L 20,-60 L 20,-50.8 z
M 20.8,-50.8 L 20.8,-60 L 30,-60 L 30,-50.8 z
M 30.8,-50.8 L 30.8,-60 L 40,-60 L 40,-50.8 z
M 40.8,-50.8 L 40.8,-60 L 50,-60 L 50,-50.8 z
M 50.8,-50.8 L 50.8,-60 L 60,-60 L 60,-50.8 z
M 60.8,-50.8 L 60.8,-60 L 70,-60 L 70,-50.8 z
M 70.8,-50.8 L 70.8,-60 L 80,-60 L 80,-50.8 z
M 80.8,-50.8 L 80.8,-60 L 90,-60 L 90,-50.8 z
M 90.8,-50.8 L 90.8,-60 L 100,-60 L 100,-50.8 z
M 100.8,-50.8 L 100.8,-60 L 110,-60 L 110,-50.8 z
M 110.8,-50.8 L 110.8,-60 L 120,-60 L 120,-50.8 z
M 120.8,-50.8 L 120.8,-60 L 130,-60 L 130,-50.8 z
M 130.8,-50.8 L 130.8,-60 L 140,-60 L 140,-50.8 z
M 140.8,-50.8 L 140.8,-60 L 150,-60 L 150,-50.8 z
M 0.799988,-40.8 L 0.799988,-50 L 10,-50 L 10,-40.8 z
M 10.8,-40.8 L 10.8,-50 L 20,-50 L 20,-40.8 z
M 20.8,-40.8 L 20.8,-50 L 30,-50 L 30,-40.8 z
M 30.8,-40.8 L 30.8,-50 L 40,-50 L 40,-40.8 z
M 40.8,-40.8 L 40.8,-50 L 50,-50 L 50,-40.8 z
M 50.8,-40.8 L 50.8,-50 L 60,-50 L 60,-40.8 z
M 60.8,-40.8 L 60.8,-50 L 70,-50 L 70,-40.8 z
M 70.8,-40.8 L 70.8,-50 L 80,-50 L 80,-40.8 z
M 80.8,-40.8 L 80.8,-50 L 90,-50 L 90,-40.8 z
M 90.8,-40.8 L 90.8,-50 L 100,-50 L 100,-40.8 z
M 100.8,-40.8 L 100.8,-50 L 110,-50 L 110,-40.8 z
M 110.8,-40.8 L 110.8,-50 L 120,-50 L 120,-40.8 z
M 120.8,-40.8 L 120.8,-50 L 130,-50 L 130,-40.8 z
M 130.8,-40.8 L 130.8,-50 L 140,-50 L 140,-40.8 z
M 140.8,-40.8 L 140.8,-50 L 150,-50 L 150,-40.8 z
M 0.799988,-30.8 L 0.799988,-40 L 10,-40 L 10,-30.8 z
M 10.8,-30.8 L 10.8,-40 L 20,-40 L 20,-30.8 z
M 20.8,-30.8 L 20.8,-40 L 30,-40 L 30,-30.8 z
M 30.8,-30.8 L 30.8,-40 L 40,-40 L 40,-30.8 z
M 40.8,-30.8 L 40.8,-40 L 50,-40 L 50,-30.8 z
M 50.8,-30.8 L 50.8,-40 L 60,-40 L 60,-30.8 z
M 60.8,-30.8 L 60.8,-40 L 70,-40 L 70,-30.8 z
M 70.8,-30.8 L 70.8,-40 L 80,-40 L 80,-30.8 z
M 80.8,-30.8 L 80.8,-40 L 90,-40 L 90,-30.8 z
M 90.8,-30.8 L 90.8,-40 L 100,-40 L 100,-30.8 z
M 100.8,-30.8 L 100.8,-40 L 110,-40 L 110,-30.8 z
M 110.8,-30.8 L 110.8,-40 L 120,-40 L 120,-30.8 z
M 120.8,-30.8 L 120.8,-40 L 130,-40 L 130,-30.8 z
M 130.8,-30.8 L 130.8,-40 L 140,-40 L 140,-30.8 z
M 140.8,-30.8 L 140.8,-40 L 150,-40 L 150,-30.8 z
M 0.799988,-20.8 L 0.799988,-30 L 10,-30 L 10,-20.8 z
M 10.8,-20.8 L 10.8,-30 L 20,-30 L 20,-20.8 z
M 20.8,-20.8 L 20.8,-30 L 30,-30 L 30,-20.8 z
M 30.8,-20.8 L 30.8,-30 L 40,-30 L 40,-20.8 z
M 40.8,-20.8 L 40.8,-30 L 50,-30 L 50,-20.8 z
M 50.8,-20.8 L 50.8,-30 L 60,-30 L 60,-20.8 z
M 60.8,-20.8 L 60.8,-30 L 70,-30 L 70,-20.8 z
M 70.8,-20.8 L 70.8,-30 L 80,-30 L 80,-20.8 z
M 80.8,-20.8 L 80.8,-30 L 90,-30 L 90,-20.8 z
M 90.8,-20.8 L 90.8,-30 L 100,-30 L 100,-20.8 z
M 100.8,-20.8 L 100.8,-30 L 110,-30 L 110,-20.8 z
M 110.8,-20.8 L 110.8,-30 L 120,-30 L 120,-20.8 z
M 120.8,-20.8 L 120.8,-30 L 130,-30 L 130,-20.8 z
M 130.8,-20.8 L 130.8,-30 L 140,-30 L 140,-20.8 z
M 140.8,-20.8 L 140.8,-30 L 150,-30 L 150,-20.8 z
M 0.799988,-10.8 L 0.799988,-20 L 10,-20 L 10,-10.8 z
M 10.8,-10.8 L 10.8,-20 L 20,-20 L 20,-10.8 z
M 20.8,-10.8 L 20.8,-20 L 30,-20 L 30,-10.8 z
M 30.8,-10.8 L 30.8,-20 L 40,-20 L 40,-10.8 z
M 40.8,-10.8 L 40.8,-20 L 50,-20 L 50,-10.8 z
M 50.8,-10.8 L 50.8,-20 L 60,-20 L 60,-10.8 z
M 60.8,-10.8 L 60.8,-20 L 70,-20 L 70,-10.8 z
M 70.8,-10.8 L 70.8,-20 L 80,-20 L 80,-10.8 z
M 80.8,-10.8 L 80.8,-20 L 90,-20 L 90,-10.8 z
M 90.8,-10.8 L 90.8,-20 L 100,-20 L 100,-10.8 z
M 100.8,-10.8 L 100.8,-20 L 110,-20 L 110,-10.8 z
M 110.8,-10.8 L 110.8,-20 L 120,-20 L 120,-10.8 z
M 120.8,-10.8 L 120.8,-20 L 130,-20 L 130,-10.8 z
M 130.8,-10.8 L 130.8,-20 L 140,-20 L 140,-10.8 z
M 140.8,-10.8 L 140.8,-20 L 150,-20 L 150,-10.8 z
M 0.799988,-0.799988 L 0.799988,-10 L 10,-10 L 10,-0.799988 z
M 10.8,-0.799988 L 10.8,-10 L 20,-10 L 20,-0.799988 z
M 20.8,-0.799988 L 20.8,-10 L 30,-10 L 30,-0.799988 z
M 30.8,-0.799988 L 30.8,-10 L 40,-10 L 40,-0.799988 z
M 40.8,-0.799988 L 40.8,-10 L 50,-10 L 50,-0.799988 z
M 50.8,-0.799988 L 50.8,-10 L 60,-10 L 60,-0.799988 z
M 60.8,-0.799988 L 60.8,-10 L 70,-10 L 70,-0.799988 z
M 70.8,-0.799988 L 70.8,-10 L 80,-10 L 80,-0.799988 z
M 80.8,-0.799988 L 80.8,-10 L 90,-10 L 90,-0.799988 z
M 90.8,-0.799988 L 90.8,-10 L 100,-10 L 100,-0.799988 z
M 100.8,-0.799988 L 100.8,-10 L 110,-10 L 110,-0.799988 z
M 110.8,-0.799988 L 110.8,-10 L 120,-10 L 120,-0.799988 z
M 120.8,-0.799988 L 120.8,-10 L 130,-10 L 130,-0.799988 z
M 130.8,-0.799988 L 130.8,-10 L 140,-10 L 140,-0.799988 z
M 140.8,-0.799988 L 140.8,-10 L 150,-10 L 150,-0.799988 z
M 140,-190.8 L 130.8,-190.8 L 130.8,-200 L 130,-200 L 130,-190.8 L 120.8,-190.8
 L 120.8,-200 L 120,-200 L 120,-190.8 L 110.8,-190.8 L 110.8,-200 L 110,-200
 L 110,-190.8 L 100.8,-190.8 L 100.8,-200 L 100,-200 L 100,-190.8 L 90.8,-190.8
 L 90.8,-200 L 90,-200 L 90,-190.8 L 80.8,-190.8 L 80.8,-200 L 80,-200
 L 80,-190.8 L 70.8,-190.8 L 70.8,-200 L 70,-200 L 70,-190.8 L 60.8,-190.8
 L 60.8,-200 L 60,-200 L 60,-190.8 L 50.8,-190.8 L 50.8,-200 L 50,-200
 L 50,-190.8 L 40.8,-190.8 L 40.8,-200 L 40,-200 L 40,-190.8 L 30.8,-190.8
 L 30.8,-200 L 30,-200 L 30,-190.8 L 20.8,-190.8 L 20.8,-200 L 20,-200
 L 20,-190.8 L 10.8,-190.8 L 10.8,-200 L 140,-200 z
M -10.0395,-145.332 L -9.37296,-145.494 L -8.79346,-145.764 L -8.30096,-146.142 L -7.90765,-146.615 L -7.62671,-147.168
 L -7.45815,-147.801 L -7.40196,-148.514 L -7.45433,-149.145 L -7.61147,-149.713 L -7.87334,-150.219 L -8.23996,-150.662
 L -8.69434,-151.023 L -9.22046,-151.28 L -9.81833,-151.435 L -10.488,-151.486 L -11.0538,-151.448 L -11.5712,-151.334
 L -12.0403,-151.143 L -12.461,-150.876 L -12.278,-153.904 L -7.95796,-153.904 L -7.95796,-154.942 L -13.39,-154.942
 L -13.709,-149.804 L -12.515,-149.804 L -12.3015,-149.977 L -12.088,-150.123 L -11.8745,-150.242 L -11.661,-150.333
 L -11.4428,-150.401 L -11.2162,-150.45 L -10.9813,-150.479 L -10.738,-150.489 L -10.2878,-150.455 L -9.88646,-150.351
 L -9.53383,-150.178 L -9.22997,-149.936 L -8.98495,-149.638 L -8.80997,-149.298 L -8.70496,-148.914 L -8.66997,-148.487
 L -8.70471,-147.999 L -8.80896,-147.566 L -8.98271,-147.188 L -9.22597,-146.865 L -9.53072,-146.607 L -9.88896,-146.423
 L -10.3007,-146.312 L -10.766,-146.275 L -11.4901,-146.364 L -12.0627,-146.63 L -12.4836,-147.073 L -12.753,-147.693
 L -13.987,-147.551 L -13.8408,-147.031 L -13.6192,-146.576 L -13.3223,-146.186 L -12.95,-145.861 L -12.5073,-145.606
 L -12.0002,-145.424 L -11.4288,-145.315 L -10.793,-145.278 z
M -15.0399,-146.444 L -17.3659,-146.444 L -17.3659,-154.942 L -18.4919,-154.942 L -20.7499,-153.407 L -20.7499,-152.254
 L -18.5939,-153.775 L -18.5939,-146.444 L -21.0279,-146.444 L -21.0279,-145.406 L -15.0399,-145.406 z
M -9.92421,-95.2635 L -9.25096,-95.5005 L -8.67821,-95.8955 L -8.20596,-96.4485 L -7.83672,-97.1519 L -7.57297,-97.997
 L -7.41472,-98.9839 L -7.36195,-100.112 L -7.41222,-101.258 L -7.56296,-102.253 L -7.81421,-103.1 L -8.16595,-103.796
 L -8.62277,-104.341 L -9.19022,-104.729 L -9.86827,-104.963 L -10.657,-105.04 L -11.4667,-104.964 L -12.16,-104.733
 L -12.7367,-104.348 L -13.197,-103.809 L -13.5483,-103.117 L -13.7992,-102.27 L -13.9498,-101.269 L -14,-100.112
 L -13.9483,-98.9782 L -13.7932,-97.9883 L -13.5348,-97.1427 L -13.173,-96.4415 L -12.7081,-95.8916 L -12.1407,-95.4988
 L -11.4706,-95.2631 L -10.698,-95.1845 z
M -11.1898,-96.2406 L -11.6225,-96.4178 L -11.9818,-96.7131 L -12.268,-97.1265 L -12.4858,-97.6679 L -12.6415,-98.346
 L -12.7348,-99.1609 L -12.766,-100.112 L -12.7353,-101.089 L -12.6432,-101.918 L -12.4898,-102.599 L -12.275,-103.132
 L -11.9893,-103.534 L -11.6245,-103.821 L -11.1803,-103.993 L -10.657,-104.05 L -10.1467,-103.992 L -9.71396,-103.817
 L -9.3587,-103.526 L -9.08096,-103.118 L -8.87184,-102.581 L -8.72246,-101.901 L -8.63284,-101.078 L -8.60297,-100.112
 L -8.63434,-99.1776 L -8.72845,-98.3718 L -8.88533,-97.6951 L -9.10497,-97.1475 L -9.39153,-96.7249 L -9.75021,-96.423
 L -10.181,-96.2419 L -10.684,-96.1815 z
M -15.0399,-96.3505 L -17.3659,-96.3505 L -17.3659,-104.848 L -18.4919,-104.848 L -20.7499,-103.313 L -20.7499,-102.16
 L -18.5939,-103.681 L -18.5939,-96.3505 L -21.0279,-96.3505 L -21.0279,-95.3125 L -15.0399,-95.3125 z
M -10.0395,-45.3323 L -9.37296,-45.4943 L -8.79346,-45.7643 L -8.30096,-46.1423 L -7.90765,-46.6149 L -7.62671,-47.1678
 L -7.45815,-47.8009 L -7.40196,-48.5143 L -7.45433,-49.145 L -7.61147,-49.7133 L -7.87334,-50.219 L -8.23996,-50.6622
 L -8.69434,-51.0227 L -9.22046,-51.2802 L -9.81833,-51.4347 L -10.488,-51.4862 L -11.0538,-51.4481 L -11.5712,-51.3337
 L -12.0403,-51.1431 L -12.461,-50.8762 L -12.278,-53.9042 L -7.95796,-53.9042 L -7.95796,-54.9422 L -13.39,-54.9422
 L -13.709,-49.8043 L -12.515,-49.8043 L -12.3015,-49.9772 L -12.088,-50.123 L -11.8745,-50.2417 L -11.661,-50.3332
 L -11.4428,-50.4015 L -11.2162,-50.4502 L -10.9813,-50.4795 L -10.738,-50.4892 L -10.2878,-50.4547 L -9.88646,-50.351
 L -9.53383,-50.1782 L -9.22997,-49.9363 L -8.98495,-49.6383 L -8.80997,-49.2975 L -8.70496,-48.9138 L -8.66997,-48.4873
 L -8.70471,-47.9989 L -8.80896,-47.5658 L -8.98271,-47.1879 L -9.22597,-46.8653 L -9.53072,-46.6071 L -9.88896,-46.4228
 L -10.3007,-46.3121 L -10.766,-46.2753 L -11.4901,-46.3639 L -12.0627,-46.6298 L -12.4836,-47.0729 L -12.753,-47.6933
 L -13.987,-47.5513 L -13.8408,-47.0309 L -13.6192,-46.5758 L -13.3223,-46.1859 L -12.95,-45.8613 L -12.5073,-45.6062
 L -12.0002,-45.424 L -11.4288,-45.3147 L -10.793,-45.2783 z
M -9.92421,4.7365 L -9.25096,4.4995 L -8.67821,4.10449 L -8.20596,3.5515 L -7.83672,2.84811 L -7.57297,2.00299
 L -7.41472,1.01611 L -7.36195,-0.112488 L -7.41222,-1.25774 L -7.56296,-2.25349 L -7.81421,-3.09975 L -8.16595,-3.79649
 L -8.62277,-4.34074 L -9.19022,-4.72949 L -9.86827,-4.96274 L -10.657,-5.0405 L -11.4667,-4.96356 L -12.16,-4.73274
 L -12.7367,-4.34805 L -13.197,-3.80949 L -13.5483,-3.11719 L -13.7992,-2.27025 L -13.9498,-1.26868 L -14,-0.112488
 L -13.9483,1.0218 L -13.7932,2.01175 L -13.5348,2.8573 L -13.173,3.55849 L -12.7081,4.10843 L -12.1407,4.50124
 L -11.4706,4.73692 L -10.698,4.81549 z
M -11.1898,3.75943 L -11.6225,3.58224 L -11.9818,3.28693 L -12.268,2.87349 L -12.4858,2.33212 L -12.6415,1.65399
 L -12.7348,0.839111 L -12.766,-0.112488 L -12.7353,-1.08949 L -12.6432,-1.91849 L -12.4898,-2.59949 L -12.275,-3.13249
 L -11.9893,-3.53412 L -11.6245,-3.821 L -11.1803,-3.99312 L -10.657,-4.05049 L -10.1467,-3.99225 L -9.71396,-3.81749
 L -9.3587,-3.52625 L -9.08096,-3.1185 L -8.87184,-2.58112 L -8.72246,-1.90099 L -8.63284,-1.07811 L -8.60297,-0.112488
 L -8.63434,0.822433 L -8.72845,1.62823 L -8.88533,2.30493 L -9.10497,2.85249 L -9.39153,3.27512 L -9.75021,3.577
 L -10.181,3.75812 L -10.684,3.8185 z
M 50.8,-0 L 50,-0 L 50,5 L 50.8,5 z
M 104.619,16.549 L 105.292,16.312 L 105.865,15.917 L 106.337,15.364 L 106.706,14.6606 L 106.97,13.8155
 L 107.128,12.8286 L 107.181,11.7 L 107.131,10.5547 L 106.98,9.55899 L 106.729,8.71274 L 106.377,8.01599
 L 105.92,7.47174 L 105.353,7.08299 L 104.675,6.84976 L 103.886,6.772 L 103.076,6.84894 L 102.383,7.07974
 L 101.806,7.46443 L 101.346,8.00299 L 100.995,8.69531 L 100.744,9.54224 L 100.593,10.5438 L 100.543,11.7
 L 100.595,12.8343 L 100.75,13.8242 L 101.008,14.6698 L 101.37,15.371 L 101.835,15.9209 L 102.402,16.3137
 L 103.072,16.5494 L 103.845,16.628 z
M 103.353,15.5719 L 102.92,15.3947 L 102.561,15.0994 L 102.275,14.686 L 102.057,14.1446 L 101.901,13.4665
 L 101.808,12.6516 L 101.777,11.7 L 101.808,10.723 L 101.9,9.894 L 102.053,9.213 L 102.268,8.67999
 L 102.554,8.27837 L 102.918,7.99149 L 103.363,7.81937 L 103.886,7.76199 L 104.396,7.82024 L 104.829,7.995
 L 105.184,8.28624 L 105.462,8.69398 L 105.671,9.23137 L 105.82,9.9115 L 105.91,10.7344 L 105.94,11.7
 L 105.909,12.6349 L 105.814,13.4407 L 105.658,14.1174 L 105.438,14.665 L 105.151,15.0876 L 104.793,15.3895
 L 104.362,15.5706 L 103.859,15.631 z
M 0.84726,16.549 L 1.52051,16.312 L 2.09326,15.917 L 2.56551,15.364 L 2.93475,14.6606 L 3.1985,13.8155
 L 3.35675,12.8286 L 3.40952,11.7 L 3.35925,10.5547 L 3.20851,9.55899 L 2.95726,8.71274 L 2.60551,8.01599
 L 2.1487,7.47174 L 1.58125,7.08299 L 0.903198,6.84976 L 0.114502,6.772 L -0.695221,6.84894 L -1.38847,7.07974
 L -1.96523,7.46443 L -2.42548,8.00299 L -2.77679,8.69531 L -3.02773,9.54224 L -3.17828,10.5438 L -3.22847,11.7
 L -3.17679,12.8343 L -3.02173,13.8242 L -2.76329,14.6698 L -2.40147,15.371 L -1.93666,15.9209 L -1.36923,16.3137
 L -0.699158,16.5494 L 0.0735016,16.628 z
M -0.41835,15.5719 L -0.850983,15.3947 L -1.21036,15.0994 L -1.49648,14.686 L -1.71436,14.1446 L -1.86998,13.4665
 L -1.96335,12.6516 L -1.99448,11.7 L -1.96379,10.723 L -1.87172,9.894 L -1.71829,9.213 L -1.50348,8.67999
 L -1.21785,8.27837 L -0.852982,7.99149 L -0.408859,7.81937 L 0.114502,7.76199 L 0.624756,7.82024 L 1.05751,7.995
 L 1.41277,8.28624 L 1.69051,8.69398 L 1.89963,9.23137 L 2.04901,9.9115 L 2.13863,10.7344 L 2.1685,11.7
 L 2.13713,12.6349 L 2.04301,13.4407 L 1.88614,14.1174 L 1.6665,14.665 L 1.37994,15.0876 L 1.02126,15.3895
 L 0.590439,15.5706 L 0.0875092,15.631 z
M 154.503,16.3865 L 155.17,16.2245 L 155.749,15.9545 L 156.242,15.5765 L 156.635,15.1039 L 156.916,14.551
 L 157.085,13.9179 L 157.141,13.2045 L 157.089,12.5737 L 156.931,12.0055 L 156.67,11.4997 L 156.303,11.0565
 L 155.849,10.696 L 155.322,10.4385 L 154.725,10.284 L 154.055,10.2325 L 153.489,10.2706 L 152.972,10.385
 L 152.503,10.5756 L 152.082,10.8425 L 152.265,7.8145 L 156.585,7.8145 L 156.585,6.7765 L 151.153,6.7765
 L 150.834,11.9145 L 152.028,11.9145 L 152.241,11.7416 L 152.455,11.5957 L 152.668,11.4771 L 152.882,11.3855
 L 153.1,11.3172 L 153.327,11.2685 L 153.562,11.2392 L 153.805,11.2295 L 154.255,11.2641 L 154.656,11.3677
 L 155.009,11.5406 L 155.313,11.7825 L 155.558,12.0804 L 155.733,12.4212 L 155.838,12.8049 L 155.873,13.2315
 L 155.838,13.7199 L 155.734,14.153 L 155.56,14.5309 L 155.317,14.8535 L 155.012,15.1116 L 154.654,15.296
 L 154.242,15.4066 L 153.777,15.4435 L 153.053,15.3549 L 152.48,15.089 L 152.059,14.6459 L 151.79,14.0255
 L 150.556,14.1675 L 150.702,14.6879 L 150.924,15.143 L 151.221,15.5329 L 151.593,15.8575 L 152.036,16.1125
 L 152.543,16.2947 L 153.114,16.4041 L 153.75,16.4405 z
M 149.503,15.2745 L 147.177,15.2745 L 147.177,6.7765 L 146.051,6.7765 L 143.793,8.31149 L 143.793,9.46449
 L 145.949,7.9435 L 145.949,15.2745 L 143.515,15.2745 L 143.515,16.3125 L 149.503,16.3125 z
M 50.732,16.3865 L 51.3985,16.2245 L 51.978,15.9545 L 52.4705,15.5765 L 52.8638,15.1039 L 53.1448,14.551
 L 53.3133,13.9179 L 53.3695,13.2045 L 53.3171,12.5737 L 53.16,12.0055 L 52.8981,11.4997 L 52.5315,11.0565
 L 52.0771,10.696 L 51.551,10.4385 L 50.9531,10.284 L 50.2835,10.2325 L 49.7177,10.2706 L 49.2003,10.385
 L 48.7312,10.5756 L 48.3105,10.8425 L 48.4935,7.8145 L 52.8135,7.8145 L 52.8135,6.7765 L 47.3815,6.7765
 L 47.0625,11.9145 L 48.2565,11.9145 L 48.47,11.7416 L 48.6835,11.5957 L 48.897,11.4771 L 49.1105,11.3855
 L 49.3287,11.3172 L 49.5553,11.2685 L 49.7902,11.2392 L 50.0335,11.2295 L 50.4836,11.2641 L 50.885,11.3677
 L 51.2376,11.5406 L 51.5415,11.7825 L 51.7865,12.0804 L 51.9615,12.4212 L 52.0665,12.8049 L 52.1015,13.2315
 L 52.0668,13.7199 L 51.9625,14.153 L 51.7888,14.5309 L 51.5455,14.8535 L 51.2408,15.1116 L 50.8825,15.296
 L 50.4708,15.4066 L 50.0055,15.4435 L 49.2813,15.3549 L 48.7088,15.089 L 48.2878,14.6459 L 48.0185,14.0255
 L 46.7845,14.1675 L 46.9307,14.6879 L 47.1523,15.143 L 47.4492,15.5329 L 47.8215,15.8575 L 48.2642,16.1125
 L 48.7713,16.2947 L 49.3427,16.4041 L 49.9785,16.4405 z
M 99.503,15.462 L 97.177,15.462 L 97.177,6.964 L 96.051,6.964 L 93.793,8.49899 L 93.793,9.65199
 L 95.949,8.131 L 95.949,15.462 L 93.515,15.462 L 93.515,16.5 L 99.503,16.5 z
" stroke="black" fill="lightgray" stroke-width="0.5"/>
</svg>
